{
  "accessors": [
    {
      "bufferView": 2,
      "componentType": 5126,
      "count": 48112,
      "max": [
        2.553999900817871,
        6.072195053100586,
        4.169641971588135
      ],
      "min": [
        -2.6570959091186523,
        -5.769217014312744,
        -0.12339500337839127
      ],
      "type": "VEC3"
    },
    {
      "bufferView": 2,
      "byteOffset": 577344,
      "componentType": 5126,
      "count": 48112,
      "max": [
        0.9999737739562988,
        0.9999897480010986,
        0.9999994039535522
      ],
      "min": [
        -0.9999926090240479,
        -0.999954342842102,
        -0.9999599456787109
      ],
      "type": "VEC3"
    },
    {
      "bufferView": 1,
      "componentType": 5126,
      "count": 48112,
      "max": [
        0.9900000095367432,
        0.9900000095367432
      ],
      "min": [
        0.009999999776482582,
        0.009999999776482582
      ],
      "type": "VEC2"
    },
    {
      "bufferView": 0,
      "componentType": 5125,
      "count": 187008,
      "type": "SCALAR"
    }
  ],
  "asset": {
    "extras": {
      "author": "Alexandre González Rivas (https://sketchfab.com/AlexandreGonzalezRivas)",
      "license": "CC-BY-NC-4.0 (http://creativecommons.org/licenses/by-nc/4.0/)",
      "source": "https://sketchfab.com/3d-models/boat-josefa-90f8077289544059b03f974efeda6093",
      "title": "Boat \"Josefa\""
    },
    "generator": "Sketchfab-12.68.0",
    "version": "2.0"
  },
  "bufferViews": [
    {
      "buffer": 0,
      "byteLength": 748032,
      "name": "floatBufferViews",
      "target": 34963
    },
    {
      "buffer": 0,
      "byteLength": 384896,
      "byteOffset": 748032,
      "byteStride": 8,
      "name": "floatBufferViews",
      "target": 34962
    },
    {
      "buffer": 0,
      "byteLength": 1154688,
      "byteOffset": 1132928,
      "byteStride": 12,
      "name": "floatBufferViews",
      "target": 34962
    }
  ],
  "buffers": [
    {
      "byteLength": 2287616,
      "uri": "scene.bin"
    }
  ],
  "extensionsUsed": [
    "KHR_materials_unlit"
  ],
  "images": [
    {
      "uri": "textures/barco_con_low_Material_u1_v1_baseColor.png"
    }
  ],
  "materials": [
    {
      "doubleSided": true,
      "extensions": {
        "KHR_materials_unlit": {}
      },
      "name": "barco_con_low_Material_u1_v1",
      "pbrMetallicRoughness": {
        "baseColorTexture": {
          "index": 0
        },
        "metallicFactor": 0.0
      }
    }
  ],
  "meshes": [
    {
      "name": "Object_0",
      "primitives": [
        {
          "attributes": {
            "NORMAL": 1,
            "POSITION": 0,
            "TEXCOORD_0": 2
          },
          "indices": 3,
          "material": 0,
          "mode": 4
        }
      ]
    }
  ],
  "nodes": [
    {
      "children": [
        1
      ],
      "matrix": [
        0.5899330973625183,
        0.0,
        0.0,
        0.0,
        0.0,
        1.309914615360604e-16,
        -0.5899330973625183,
        0.0,
        0.0,
        0.5899330973625183,
        1.309914615360604e-16,
        0.0,
        0.0,
        0.0,
        0.0,
        1.0
      ],
      "name": "Sketchfab_model"
    },
    {
      "children": [
        2
      ],
      "name": "barco_con_low_test.obj.cleaner.materialmerger.gles"
    },
    {
      "mesh": 0,
      "name": "Object_2"
    }
  ],
  "samplers": [
    {
      "magFilter": 9729,
      "minFilter": 9987,
      "wrapS": 10497,
      "wrapT": 10497
    }
  ],
  "scene": 0,
  "scenes": [
    {
      "name": "Sketchfab_Scene",
      "nodes": [
        0
      ]
    }
  ],
  "textures": [
    {
      "sampler": 0,
      "source": 0
    }
  ]
}
