{
	"asset":{
		"generator":"Khronos glTF Blender I/O v4.5.47",
		"version":"2.0"
	},
	"scene":0,
	"scenes":[
		{
			"name":"Scene",
			"nodes":[
				0,
				1
			]
		}
	],
	"nodes":[
		{
			"mesh":0,
			"name":"\u4e66\u9875"
		},
		{
			"mesh":1,
			"name":"\u4e66\u58f3",
			"scale":[
				1,
				0.25,
				0.9705329537391663
			],
			"translation":[
				0,
				0.11600000411272049,
				0
			]
		}
	],
	"meshes":[
		{
			"name":"\u5e73\u9762",
			"primitives":[
				{
					"attributes":{
						"POSITION":0,
						"NORMAL":1,
						"TEXCOORD_0":2
					},
					"indices":3
				}
			]
		},
		{
			"name":"\u7acb\u65b9\u4f53",
			"primitives":[
				{
					"attributes":{
						"POSITION":4,
						"NORMAL":5,
						"TEXCOORD_0":6
					},
					"indices":7
				}
			]
		}
	],
	"accessors":[
		{
			"bufferView":0,
			"componentType":5126,
			"count":6076,
			"max":[
				0.900000274181366,
				1.2610175609588623,
				1.5966254472732544
			],
			"min":[
				-0.900000274181366,
				0.01736481301486492,
				-1.5964853763580322
			],
			"type":"VEC3"
		},
		{
			"bufferView":1,
			"componentType":5126,
			"count":6076,
			"type":"VEC3"
		},
		{
			"bufferView":2,
			"componentType":5126,
			"count":6076,
			"type":"VEC2"
		},
		{
			"bufferView":3,
			"componentType":5123,
			"count":13386,
			"type":"SCALAR"
		},
		{
			"bufferView":4,
			"componentType":5126,
			"count":336,
			"max":[
				1,
				0.36306625604629517,
				1.6968077421188354
			],
			"min":[
				-1,
				-0.44303810596466064,
				-1.6968122720718384
			],
			"type":"VEC3"
		},
		{
			"bufferView":5,
			"componentType":5126,
			"count":336,
			"type":"VEC3"
		},
		{
			"bufferView":6,
			"componentType":5126,
			"count":336,
			"type":"VEC2"
		},
		{
			"bufferView":7,
			"componentType":5123,
			"count":852,
			"type":"SCALAR"
		}
	],
	"bufferViews":[
		{
			"buffer":0,
			"byteLength":72912,
			"byteOffset":0,
			"target":34962
		},
		{
			"buffer":0,
			"byteLength":72912,
			"byteOffset":72912,
			"target":34962
		},
		{
			"buffer":0,
			"byteLength":48608,
			"byteOffset":145824,
			"target":34962
		},
		{
			"buffer":0,
			"byteLength":26772,
			"byteOffset":194432,
			"target":34963
		},
		{
			"buffer":0,
			"byteLength":4032,
			"byteOffset":221204,
			"target":34962
		},
		{
			"buffer":0,
			"byteLength":4032,
			"byteOffset":225236,
			"target":34962
		},
		{
			"buffer":0,
			"byteLength":2688,
			"byteOffset":229268,
			"target":34962
		},
		{
			"buffer":0,
			"byteLength":1704,
			"byteOffset":231956,
			"target":34963
		}
	],
	"buffers":[
		{
			"byteLength":233660,
			"uri":"ancient_books.bin"
		}
	]
}
