{
  "accessors": [
    {
      "bufferView": 2,
      "componentType": 5126,
      "count": 65532,
      "max": [
        0.3188839554786682,
        0.3669939935207367,
        0.8781049847602844
      ],
      "min": [
        -0.31863296031951904,
        -0.3769879937171936,
        -0.969556987285614
      ],
      "type": "VEC3"
    },
    {
      "bufferView": 2,
      "byteOffset": 786384,
      "componentType": 5126,
      "count": 65532,
      "max": [
        0.9999704360961914,
        0.9999727010726929,
        0.9999637603759766
      ],
      "min": [
        -0.999855101108551,
        -0.9999659061431885,
        -0.9999825954437256
      ],
      "type": "VEC3"
    },
    {
      "bufferView": 1,
      "componentType": 5126,
      "count": 65532,
      "max": [
        0.9995009899139404,
        0.9999920129776001
      ],
      "min": [
        0.0004982589744031429,
        0.0002048015594482422
      ],
      "type": "VEC2"
    },
    {
      "bufferView": 1,
      "byteOffset": 524256,
      "componentType": 5126,
      "count": 65532,
      "max": [
        0.9995009899139404,
        0.9999920129776001
      ],
      "min": [
        0.0004982589744031429,
        0.0002048015594482422
      ],
      "type": "VEC2"
    },
    {
      "bufferView": 0,
      "componentType": 5125,
      "count": 298575,
      "type": "SCALAR"
    },
    {
      "bufferView": 2,
      "byteOffset": 1572768,
      "componentType": 5126,
      "count": 65532,
      "max": [
        0.2677059769630432,
        0.19853496551513672,
        0.996146023273468
      ],
      "min": [
        -0.3188839554786682,
        -0.04696919396519661,
        -1.0
      ],
      "type": "VEC3"
    },
    {
      "bufferView": 2,
      "byteOffset": 2359152,
      "componentType": 5126,
      "count": 65532,
      "max": [
        0.9999960064888,
        0.9999210834503174,
        0.999993085861206
      ],
      "min": [
        -0.9999640583992004,
        -0.9999685287475586,
        -0.9999743700027466
      ],
      "type": "VEC3"
    },
    {
      "bufferView": 1,
      "byteOffset": 1048512,
      "componentType": 5126,
      "count": 65532,
      "max": [
        0.9999799728393555,
        0.9999920129776001
      ],
      "min": [
        0.0005410599987953901,
        0.0001952052116394043
      ],
      "type": "VEC2"
    },
    {
      "bufferView": 1,
      "byteOffset": 1572768,
      "componentType": 5126,
      "count": 65532,
      "max": [
        0.9999799728393555,
        0.9999920129776001
      ],
      "min": [
        0.0005410599987953901,
        0.0001952052116394043
      ],
      "type": "VEC2"
    },
    {
      "bufferView": 0,
      "byteOffset": 1194300,
      "componentType": 5125,
      "count": 286563,
      "type": "SCALAR"
    },
    {
      "bufferView": 2,
      "byteOffset": 3145536,
      "componentType": 5126,
      "count": 65532,
      "max": [
        0.3150019645690918,
        0.3465970456600189,
        1.0
      ],
      "min": [
        -0.25316497683525085,
        0.07305139303207397,
        -0.9991469979286194
      ],
      "type": "VEC3"
    },
    {
      "bufferView": 2,
      "byteOffset": 3931920,
      "componentType": 5126,
      "count": 65532,
      "max": [
        0.9999992847442627,
        0.9999644756317139,
        0.9999814629554749
      ],
      "min": [
        -0.9999973177909851,
        -0.9999590516090393,
        -0.9999808669090271
      ],
      "type": "VEC3"
    },
    {
      "bufferView": 1,
      "byteOffset": 2097024,
      "componentType": 5126,
      "count": 65532,
      "max": [
        0.9999809861183167,
        1.0
      ],
      "min": [
        0.00021375999494921416,
        8.928775787353516e-05
      ],
      "type": "VEC2"
    },
    {
      "bufferView": 1,
      "byteOffset": 2621280,
      "componentType": 5126,
      "count": 65532,
      "max": [
        0.9999809861183167,
        1.0
      ],
      "min": [
        0.00021375999494921416,
        8.928775787353516e-05
      ],
      "type": "VEC2"
    },
    {
      "bufferView": 0,
      "byteOffset": 2340552,
      "componentType": 5125,
      "count": 290304,
      "type": "SCALAR"
    },
    {
      "bufferView": 2,
      "byteOffset": 4718304,
      "componentType": 5126,
      "count": 65532,
      "max": [
        0.3149799704551697,
        0.3769879937171936,
        0.9214560389518738
      ],
      "min": [
        -0.20923396944999695,
        0.15688806772232056,
        -0.3285849690437317
      ],
      "type": "VEC3"
    },
    {
      "bufferView": 2,
      "byteOffset": 5504688,
      "componentType": 5126,
      "count": 65532,
      "max": [
        0.9999370574951172,
        0.9999831914901733,
        0.9999237060546875
      ],
      "min": [
        -0.9999849200248718,
        -0.9999740123748779,
        -0.999994158744812
      ],
      "type": "VEC3"
    },
    {
      "bufferView": 1,
      "byteOffset": 3145536,
      "componentType": 5126,
      "count": 65532,
      "max": [
        0.9999799728393555,
        0.9999970197677612
      ],
      "min": [
        0.00021529399964492768,
        2.5987625122070313e-05
      ],
      "type": "VEC2"
    },
    {
      "bufferView": 1,
      "byteOffset": 3669792,
      "componentType": 5126,
      "count": 65532,
      "max": [
        0.9999799728393555,
        0.9999970197677612
      ],
      "min": [
        0.00021529399964492768,
        2.5987625122070313e-05
      ],
      "type": "VEC2"
    },
    {
      "bufferView": 0,
      "byteOffset": 3501768,
      "componentType": 5125,
      "count": 266568,
      "type": "SCALAR"
    },
    {
      "bufferView": 2,
      "byteOffset": 6291072,
      "componentType": 5126,
      "count": 65532,
      "max": [
        0.3102879822254181,
        0.32386496663093567,
        0.9946150183677673
      ],
      "min": [
        -0.25113096833229065,
        0.13862808048725128,
        -0.9998080134391785
      ],
      "type": "VEC3"
    },
    {
      "bufferView": 2,
      "byteOffset": 7077456,
      "componentType": 5126,
      "count": 65532,
      "max": [
        0.9999973177909851,
        0.9999725818634033,
        0.9999237060546875
      ],
      "min": [
        -0.9999849200248718,
        -0.9999861717224121,
        -0.9999608397483826
      ],
      "type": "VEC3"
    },
    {
      "bufferView": 1,
      "byteOffset": 4194048,
      "componentType": 5126,
      "count": 65532,
      "max": [
        0.999987006187439,
        0.9999939799308777
      ],
      "min": [
        0.00020862900419160724,
        0.00021004676818847656
      ],
      "type": "VEC2"
    },
    {
      "bufferView": 1,
      "byteOffset": 4718304,
      "componentType": 5126,
      "count": 65532,
      "max": [
        0.999987006187439,
        0.9999939799308777
      ],
      "min": [
        0.00020862900419160724,
        0.00021004676818847656
      ],
      "type": "VEC2"
    },
    {
      "bufferView": 0,
      "byteOffset": 4568040,
      "componentType": 5125,
      "count": 257982,
      "type": "SCALAR"
    },
    {
      "bufferView": 2,
      "byteOffset": 7863840,
      "componentType": 5126,
      "count": 1463,
      "max": [
        0.25178197026252747,
        0.16516901552677155,
        0.9725139737129211
      ],
      "min": [
        -0.24936096370220184,
        0.138419970870018,
        -0.9281659722328186
      ],
      "type": "VEC3"
    },
    {
      "bufferView": 2,
      "byteOffset": 7881396,
      "componentType": 5126,
      "count": 1463,
      "max": [
        0.9999390244483948,
        0.999109148979187,
        0.9987871646881104
      ],
      "min": [
        -0.996830940246582,
        -0.9965192675590515,
        -0.9774793982505798
      ],
      "type": "VEC3"
    },
    {
      "bufferView": 1,
      "byteOffset": 5242560,
      "componentType": 5126,
      "count": 1463,
      "max": [
        0.9992790222167969,
        0.9997580051422119
      ],
      "min": [
        0.00023132399655878544,
        0.00024396181106567383
      ],
      "type": "VEC2"
    },
    {
      "bufferView": 1,
      "byteOffset": 5254264,
      "componentType": 5126,
      "count": 1463,
      "max": [
        0.9992790222167969,
        0.9997580051422119
      ],
      "min": [
        0.00023132399655878544,
        0.00024396181106567383
      ],
      "type": "VEC2"
    },
    {
      "bufferView": 0,
      "byteOffset": 5599968,
      "componentType": 5125,
      "count": 3240,
      "type": "SCALAR"
    }
  ],
  "asset": {
    "extras": {
      "author": "golden4445etetet (https://sketchfab.com/golden4445etetet)",
      "license": "CC-BY-4.0 (http://creativecommons.org/licenses/by/4.0/)",
      "source": "https://sketchfab.com/3d-models/spot-light-girl-309832a221674ea4abf785ca7fc5b9e5",
      "title": "spot light girl"
    },
    "generator": "Sketchfab-17.3.0",
    "version": "2.0"
  },
  "bufferViews": [
    {
      "buffer": 0,
      "byteLength": 5612928,
      "name": "floatBufferViews",
      "target": 34963
    },
    {
      "buffer": 0,
      "byteLength": 5265968,
      "byteOffset": 5612928,
      "byteStride": 8,
      "name": "floatBufferViews",
      "target": 34962
    },
    {
      "buffer": 0,
      "byteLength": 7898952,
      "byteOffset": 10878896,
      "byteStride": 12,
      "name": "floatBufferViews",
      "target": 34962
    }
  ],
  "buffers": [
    {
      "byteLength": 18777848,
      "uri": "scene.bin"
    }
  ],
  "extensionsUsed": [
    "KHR_materials_specular"
  ],
  "images": [
    {
      "uri": "textures/Material.001_baseColor.jpeg"
    }
  ],
  "materials": [
    {
      "doubleSided": true,
      "extensions": {
        "KHR_materials_specular": {
          "specularColorFactor": [
            1.0,
            1.0,
            1.0
          ],
          "specularFactor": 0.32152478940888196
        }
      },
      "name": "Material.001",
      "pbrMetallicRoughness": {
        "baseColorTexture": {
          "index": 0
        },
        "metallicFactor": 0.0,
        "roughnessFactor": 0.7542880130682302
      }
    }
  ],
  "meshes": [
    {
      "name": "Mesh_0_Material.001_0",
      "primitives": [
        {
          "attributes": {
            "NORMAL": 1,
            "POSITION": 0,
            "TEXCOORD_0": 2,
            "TEXCOORD_1": 3
          },
          "indices": 4,
          "material": 0,
          "mode": 4
        }
      ]
    },
    {
      "name": "Mesh_0_Material.001_0",
      "primitives": [
        {
          "attributes": {
            "NORMAL": 6,
            "POSITION": 5,
            "TEXCOORD_0": 7,
            "TEXCOORD_1": 8
          },
          "indices": 9,
          "material": 0,
          "mode": 4
        }
      ]
    },
    {
      "name": "Mesh_0_Material.001_0",
      "primitives": [
        {
          "attributes": {
            "NORMAL": 11,
            "POSITION": 10,
            "TEXCOORD_0": 12,
            "TEXCOORD_1": 13
          },
          "indices": 14,
          "material": 0,
          "mode": 4
        }
      ]
    },
    {
      "name": "Mesh_0_Material.001_0",
      "primitives": [
        {
          "attributes": {
            "NORMAL": 16,
            "POSITION": 15,
            "TEXCOORD_0": 17,
            "TEXCOORD_1": 18
          },
          "indices": 19,
          "material": 0,
          "mode": 4
        }
      ]
    },
    {
      "name": "Mesh_0_Material.001_0",
      "primitives": [
        {
          "attributes": {
            "NORMAL": 21,
            "POSITION": 20,
            "TEXCOORD_0": 22,
            "TEXCOORD_1": 23
          },
          "indices": 24,
          "material": 0,
          "mode": 4
        }
      ]
    },
    {
      "name": "Mesh_0_Material.001_0",
      "primitives": [
        {
          "attributes": {
            "NORMAL": 26,
            "POSITION": 25,
            "TEXCOORD_0": 27,
            "TEXCOORD_1": 28
          },
          "indices": 29,
          "material": 0,
          "mode": 4
        }
      ]
    }
  ],
  "nodes": [
    {
      "children": [
        1
      ],
      "matrix": [
        1.0,
        0.0,
        0.0,
        0.0,
        0.0,
        2.220446049250313e-16,
        -1.0,
        0.0,
        0.0,
        1.0,
        2.220446049250313e-16,
        0.0,
        0.0,
        0.0,
        0.0,
        1.0
      ],
      "name": "Sketchfab_model"
    },
    {
      "children": [
        2
      ],
      "matrix": [
        0.009999999776482582,
        0.0,
        0.0,
        0.0,
        0.0,
        0.0,
        0.009999999776482582,
        0.0,
        0.0,
        -0.009999999776482582,
        0.0,
        0.0,
        0.0,
        0.0,
        0.0,
        1.0
      ],
      "name": "d9f92fa29dc3470dbd6495ef6fb40766.fbx"
    },
    {
      "children": [
        3
      ],
      "name": "RootNode"
    },
    {
      "children": [
        4,
        5,
        6,
        7,
        8,
        9
      ],
      "matrix": [
        100.0,
        0.0,
        0.0,
        0.0,
        0.0,
        -4.371139006309477e-06,
        -99.9999999999999,
        0.0,
        0.0,
        99.9999999999999,
        -4.371139006309477e-06,
        0.0,
        0.0,
        0.0,
        0.0,
        1.0
      ],
      "name": "Mesh_0"
    },
    {
      "mesh": 0,
      "name": "Mesh_0_Material.001_0"
    },
    {
      "mesh": 1,
      "name": "Mesh_0_Material.001_0"
    },
    {
      "mesh": 2,
      "name": "Mesh_0_Material.001_0"
    },
    {
      "mesh": 3,
      "name": "Mesh_0_Material.001_0"
    },
    {
      "mesh": 4,
      "name": "Mesh_0_Material.001_0"
    },
    {
      "mesh": 5,
      "name": "Mesh_0_Material.001_0"
    }
  ],
  "samplers": [
    {
      "magFilter": 9729,
      "minFilter": 9987,
      "wrapS": 10497,
      "wrapT": 10497
    }
  ],
  "scene": 0,
  "scenes": [
    {
      "name": "Sketchfab_Scene",
      "nodes": [
        0
      ]
    }
  ],
  "textures": [
    {
      "sampler": 0,
      "source": 0
    }
  ]
}
