{
	"asset":{
		"generator":"Khronos glTF Blender I/O v4.5.47",
		"version":"2.0"
	},
	"scene":0,
	"scenes":[
		{
			"name":"Scene",
			"nodes":[
				0,
				1,
				2,
				3,
				4,
				5,
				6,
				7,
				8,
				9,
				10,
				11,
				12,
				13,
				14,
				15,
				16,
				17,
				18,
				19
			]
		}
	],
	"nodes":[
		{
			"mesh":0,
			"name":"\u5899\u58c1",
			"rotation":[
				0,
				0.7071068286895752,
				0,
				0.7071068286895752
			],
			"translation":[
				0.25207334756851196,
				0,
				0.23302572965621948
			]
		},
		{
			"mesh":1,
			"name":"\u6559\u5ba4",
			"rotation":[
				0,
				0.7071068286895752,
				0,
				0.7071068286895752
			],
			"translation":[
				0.25207334756851196,
				0,
				0.23302572965621948
			]
		},
		{
			"mesh":2,
			"name":"\u5730\u677f",
			"rotation":[
				0,
				0.7071068286895752,
				0,
				0.7071068286895752
			],
			"translation":[
				0.25207334756851196,
				0,
				0.23302572965621948
			]
		},
		{
			"mesh":3,
			"name":"\u7a97\u6237",
			"rotation":[
				0,
				0.7071068286895752,
				0,
				0.7071068286895752
			],
			"translation":[
				0.25207334756851196,
				0,
				0.23302572965621948
			]
		},
		{
			"mesh":3,
			"name":"\u7a97\u6237.001",
			"rotation":[
				0,
				0.7071068286895752,
				0,
				0.7071068286895752
			],
			"translation":[
				6.182071685791016,
				0,
				0.23302572965621948
			]
		},
		{
			"mesh":4,
			"name":"\u95e8",
			"scale":[
				1,
				0.9655172824859619,
				1
			],
			"translation":[
				-3.3831303119659424,
				1.614658236503601,
				3.215296506881714
			]
		},
		{
			"mesh":5,
			"name":"\u5929\u82b1\u677f",
			"translation":[
				0.25207334756851196,
				3.99699068069458,
				0.23302572965621948
			]
		},
		{
			"mesh":6,
			"name":"\u5927\u9ed1\u677f",
			"rotation":[
				0,
				0.7071068286895752,
				0,
				0.7071068286895752
			],
			"translation":[
				0.25207334756851196,
				0,
				0.23302572965621948
			]
		},
		{
			"mesh":7,
			"name":"\u5c0f\u9ed1\u677f",
			"rotation":[
				0,
				0.7071068286895752,
				0,
				0.7071068286895752
			],
			"translation":[
				0.25207334756851196,
				0,
				0.23302572965621948
			]
		},
		{
			"mesh":8,
			"name":"\u8bb2\u53f0",
			"rotation":[
				0,
				0.7071068286895752,
				0,
				0.7071068286895752
			],
			"translation":[
				0.25207334756851196,
				0,
				0.23302572965621948
			]
		},
		{
			"mesh":9,
			"name":"\u53f0\u9636",
			"rotation":[
				0,
				0.7071068286895752,
				0,
				0.7071068286895752
			],
			"translation":[
				0.25207334756851196,
				0,
				0.23302572965621948
			]
		},
		{
			"mesh":10,
			"name":"\u97f3\u54cd",
			"rotation":[
				0,
				0.7071068286895752,
				0,
				0.7071068286895752
			],
			"translation":[
				0.25207334756851196,
				0,
				0.23302572965621948
			]
		},
		{
			"mesh":10,
			"name":"\u97f3\u54cd.001",
			"rotation":[
				0,
				0.7071068286895752,
				0,
				0.7071068286895752
			],
			"translation":[
				0.25207334756851196,
				0,
				-0.12374445796012878
			]
		},
		{
			"mesh":10,
			"name":"\u97f3\u54cd.002",
			"rotation":[
				0,
				0.7071068286895752,
				0,
				0.7071068286895752
			],
			"translation":[
				0.2520732879638672,
				0,
				-1.866974115371704
			]
		},
		{
			"mesh":10,
			"name":"\u97f3\u54cd.003",
			"rotation":[
				0,
				0.7071068286895752,
				0,
				0.7071068286895752
			],
			"translation":[
				0.2520732879638672,
				0,
				-2.2237443923950195
			]
		},
		{
			"mesh":11,
			"name":"\u65f6\u949f",
			"rotation":[
				0,
				0.7071068286895752,
				0,
				0.7071068286895752
			],
			"translation":[
				0.25207334756851196,
				0,
				0.23302572965621948
			]
		},
		{
			"mesh":12,
			"name":"\u67b6\u5b50",
			"rotation":[
				0,
				0.7071068286895752,
				0,
				0.7071068286895752
			],
			"translation":[
				0.25207334756851196,
				0,
				0.23302572965621948
			]
		},
		{
			"mesh":13,
			"name":"\u4e66\u67b6",
			"rotation":[
				0,
				0.7071068286895752,
				0,
				0.7071068286895752
			],
			"translation":[
				0.3520733416080475,
				0,
				0.23302572965621948
			]
		},
		{
			"mesh":14,
			"name":"\u67dc\u5b50",
			"rotation":[
				0,
				0.7071068286895752,
				0,
				0.7071068286895752
			],
			"translation":[
				0.25207334756851196,
				0,
				0.23302572965621948
			]
		},
		{
			"mesh":14,
			"name":"\u67dc\u5b50.001",
			"rotation":[
				0,
				0.7071068286895752,
				0,
				0.7071068286895752
			],
			"translation":[
				5.752073287963867,
				0,
				0.23302572965621948
			]
		}
	],
	"meshes":[
		{
			"name":"wall.004",
			"primitives":[
				{
					"attributes":{
						"POSITION":0,
						"NORMAL":1,
						"TEXCOORD_0":2
					},
					"indices":3
				}
			]
		},
		{
			"name":"wall",
			"primitives":[
				{
					"attributes":{
						"POSITION":4,
						"NORMAL":5,
						"TEXCOORD_0":6
					},
					"indices":7
				}
			]
		},
		{
			"name":"wall.005",
			"primitives":[
				{
					"attributes":{
						"POSITION":8,
						"NORMAL":9,
						"TEXCOORD_0":10
					},
					"indices":11
				}
			]
		},
		{
			"name":"\u7acb\u65b9\u4f53.019",
			"primitives":[
				{
					"attributes":{
						"POSITION":12,
						"NORMAL":13,
						"TEXCOORD_0":14
					},
					"indices":15
				}
			]
		},
		{
			"name":"\u5e73\u9762.003",
			"primitives":[
				{
					"attributes":{
						"POSITION":16,
						"NORMAL":17,
						"TEXCOORD_0":18
					},
					"indices":19
				}
			]
		},
		{
			"name":"\u7acb\u65b9\u4f53.009",
			"primitives":[
				{
					"attributes":{
						"POSITION":20,
						"NORMAL":21,
						"TEXCOORD_0":22
					},
					"indices":23
				}
			]
		},
		{
			"name":"\u7acb\u65b9\u4f53.001",
			"primitives":[
				{
					"attributes":{
						"POSITION":24,
						"NORMAL":25,
						"TEXCOORD_0":26
					},
					"indices":27
				}
			]
		},
		{
			"name":"\u7acb\u65b9\u4f53.002",
			"primitives":[
				{
					"attributes":{
						"POSITION":28,
						"NORMAL":29,
						"TEXCOORD_0":30
					},
					"indices":31
				}
			]
		},
		{
			"name":"\u5e73\u9762",
			"primitives":[
				{
					"attributes":{
						"POSITION":32,
						"NORMAL":33,
						"TEXCOORD_0":34
					},
					"indices":35
				}
			]
		},
		{
			"name":"\u7acb\u65b9\u4f53.003",
			"primitives":[
				{
					"attributes":{
						"POSITION":36,
						"NORMAL":37,
						"TEXCOORD_0":38
					},
					"indices":23
				}
			]
		},
		{
			"name":"\u7acb\u65b9\u4f53.016",
			"primitives":[
				{
					"attributes":{
						"POSITION":39,
						"NORMAL":40,
						"TEXCOORD_0":41
					},
					"indices":42
				}
			]
		},
		{
			"name":"\u7acb\u65b9\u4f53.015",
			"primitives":[
				{
					"attributes":{
						"POSITION":43,
						"NORMAL":44,
						"TEXCOORD_0":45
					},
					"indices":46
				}
			]
		},
		{
			"name":"\u7acb\u65b9\u4f53.013",
			"primitives":[
				{
					"attributes":{
						"POSITION":47,
						"NORMAL":48,
						"TEXCOORD_0":49
					},
					"indices":50
				}
			]
		},
		{
			"name":"\u7acb\u65b9\u4f53.010",
			"primitives":[
				{
					"attributes":{
						"POSITION":51,
						"NORMAL":52,
						"TEXCOORD_0":53
					},
					"indices":54
				}
			]
		},
		{
			"name":"\u7acb\u65b9\u4f53.008",
			"primitives":[
				{
					"attributes":{
						"POSITION":55,
						"NORMAL":56,
						"TEXCOORD_0":57
					},
					"indices":58
				}
			]
		}
	],
	"accessors":[
		{
			"bufferView":0,
			"componentType":5126,
			"count":35352,
			"max":[
				2.8899998664855957,
				1.2790801525115967,
				4.889999866485596
			],
			"min":[
				-2.8999998569488525,
				0.2599998116493225,
				-4.899999618530273
			],
			"type":"VEC3"
		},
		{
			"bufferView":1,
			"componentType":5126,
			"count":35352,
			"type":"VEC3"
		},
		{
			"bufferView":2,
			"componentType":5126,
			"count":35352,
			"type":"VEC2"
		},
		{
			"bufferView":3,
			"componentType":5123,
			"count":53076,
			"type":"SCALAR"
		},
		{
			"bufferView":4,
			"componentType":5126,
			"count":144,
			"max":[
				3.0900001525878906,
				4.039079666137695,
				5.09999942779541
			],
			"min":[
				-3.109999656677246,
				-2.384185791015625e-07,
				-5.100000381469727
			],
			"type":"VEC3"
		},
		{
			"bufferView":5,
			"componentType":5126,
			"count":144,
			"type":"VEC3"
		},
		{
			"bufferView":6,
			"componentType":5126,
			"count":144,
			"type":"VEC2"
		},
		{
			"bufferView":7,
			"componentType":5123,
			"count":300,
			"type":"SCALAR"
		},
		{
			"bufferView":8,
			"componentType":5126,
			"count":27558,
			"max":[
				2.8849997520446777,
				0.24999982118606567,
				4.894999980926514
			],
			"min":[
				-2.9049999713897705,
				0.19999980926513672,
				-4.8949995040893555
			],
			"type":"VEC3"
		},
		{
			"bufferView":9,
			"componentType":5126,
			"count":27558,
			"type":"VEC3"
		},
		{
			"bufferView":10,
			"componentType":5126,
			"count":27558,
			"type":"VEC2"
		},
		{
			"bufferView":11,
			"componentType":5123,
			"count":43128,
			"type":"SCALAR"
		},
		{
			"bufferView":12,
			"componentType":5126,
			"count":96,
			"max":[
				3.067873954772949,
				3.447511672973633,
				-2.5999999046325684
			],
			"min":[
				2.8678741455078125,
				1.3378162384033203,
				-4.599999904632568
			],
			"type":"VEC3"
		},
		{
			"bufferView":13,
			"componentType":5126,
			"count":96,
			"type":"VEC3"
		},
		{
			"bufferView":14,
			"componentType":5126,
			"count":96,
			"type":"VEC2"
		},
		{
			"bufferView":15,
			"componentType":5123,
			"count":156,
			"type":"SCALAR"
		},
		{
			"bufferView":16,
			"componentType":5126,
			"count":906,
			"max":[
				0.7999999523162842,
				1.4500006437301636,
				0.15000057220458984
			],
			"min":[
				-0.7999999523162842,
				-1.4500006437301636,
				-0.14999985694885254
			],
			"type":"VEC3"
		},
		{
			"bufferView":17,
			"componentType":5126,
			"count":906,
			"type":"VEC3"
		},
		{
			"bufferView":18,
			"componentType":5126,
			"count":906,
			"type":"VEC2"
		},
		{
			"bufferView":19,
			"componentType":5123,
			"count":1848,
			"type":"SCALAR"
		},
		{
			"bufferView":20,
			"componentType":5126,
			"count":24,
			"max":[
				4.900000095367432,
				0.05000000074505806,
				2.9000000953674316
			],
			"min":[
				-4.900000095367432,
				-0.05000000074505806,
				-2.9000000953674316
			],
			"type":"VEC3"
		},
		{
			"bufferView":21,
			"componentType":5126,
			"count":24,
			"type":"VEC3"
		},
		{
			"bufferView":22,
			"componentType":5126,
			"count":24,
			"type":"VEC2"
		},
		{
			"bufferView":23,
			"componentType":5123,
			"count":36,
			"type":"SCALAR"
		},
		{
			"bufferView":24,
			"componentType":5126,
			"count":72,
			"max":[
				2.0900001525878906,
				2.75,
				-4.612217903137207
			],
			"min":[
				-0.9099999666213989,
				1.25,
				-4.909183979034424
			],
			"type":"VEC3"
		},
		{
			"bufferView":25,
			"componentType":5126,
			"count":72,
			"type":"VEC3"
		},
		{
			"bufferView":26,
			"componentType":5126,
			"count":72,
			"type":"VEC2"
		},
		{
			"bufferView":27,
			"componentType":5123,
			"count":120,
			"type":"SCALAR"
		},
		{
			"bufferView":28,
			"componentType":5126,
			"count":48,
			"max":[
				-1.309999942779541,
				2.5999999046325684,
				-4.799999713897705
			],
			"min":[
				-2.509999990463257,
				1.399999976158142,
				-4.900000095367432
			],
			"type":"VEC3"
		},
		{
			"bufferView":29,
			"componentType":5126,
			"count":48,
			"type":"VEC3"
		},
		{
			"bufferView":30,
			"componentType":5126,
			"count":48,
			"type":"VEC2"
		},
		{
			"bufferView":31,
			"componentType":5123,
			"count":84,
			"type":"SCALAR"
		},
		{
			"bufferView":32,
			"componentType":5126,
			"count":48,
			"max":[
				1.090000033378601,
				1.2999999523162842,
				-3.25
			],
			"min":[
				-0.9099999666213989,
				0.3999999165534973,
				-4.25
			],
			"type":"VEC3"
		},
		{
			"bufferView":33,
			"componentType":5126,
			"count":48,
			"type":"VEC3"
		},
		{
			"bufferView":34,
			"componentType":5126,
			"count":48,
			"type":"VEC2"
		},
		{
			"bufferView":35,
			"componentType":5123,
			"count":84,
			"type":"SCALAR"
		},
		{
			"bufferView":36,
			"componentType":5126,
			"count":24,
			"max":[
				2.0899999141693115,
				0.4050000309944153,
				-3.3499999046325684
			],
			"min":[
				-1.909999966621399,
				0.2549999952316284,
				-4.849999904632568
			],
			"type":"VEC3"
		},
		{
			"bufferView":37,
			"componentType":5126,
			"count":24,
			"type":"VEC3"
		},
		{
			"bufferView":38,
			"componentType":5126,
			"count":24,
			"type":"VEC2"
		},
		{
			"bufferView":39,
			"componentType":5126,
			"count":4072,
			"max":[
				-0.48499995470046997,
				3.4749999046325684,
				-4.7074995040893555
			],
			"min":[
				-0.8349999785423279,
				3.125,
				-4.892499923706055
			],
			"type":"VEC3"
		},
		{
			"bufferView":40,
			"componentType":5126,
			"count":4072,
			"type":"VEC3"
		},
		{
			"bufferView":41,
			"componentType":5126,
			"count":4072,
			"type":"VEC2"
		},
		{
			"bufferView":42,
			"componentType":5123,
			"count":9732,
			"type":"SCALAR"
		},
		{
			"bufferView":43,
			"componentType":5126,
			"count":432,
			"max":[
				0.9399999976158142,
				3.6499998569488525,
				-4.763538837432861
			],
			"min":[
				0.24000006914138794,
				2.950000047683716,
				-4.9039998054504395
			],
			"type":"VEC3"
		},
		{
			"bufferView":44,
			"componentType":5126,
			"count":432,
			"type":"VEC3"
		},
		{
			"bufferView":45,
			"componentType":5126,
			"count":432,
			"type":"VEC2"
		},
		{
			"bufferView":46,
			"componentType":5123,
			"count":828,
			"type":"SCALAR"
		},
		{
			"bufferView":47,
			"componentType":5126,
			"count":72,
			"max":[
				-1.4350000619888306,
				3.015000104904175,
				-4.71750020980835
			],
			"min":[
				-2.384999990463257,
				2.8550000190734863,
				-4.902500152587891
			],
			"type":"VEC3"
		},
		{
			"bufferView":48,
			"componentType":5126,
			"count":72,
			"type":"VEC3"
		},
		{
			"bufferView":49,
			"componentType":5126,
			"count":72,
			"type":"VEC2"
		},
		{
			"bufferView":50,
			"componentType":5123,
			"count":108,
			"type":"SCALAR"
		},
		{
			"bufferView":51,
			"componentType":5126,
			"count":1272,
			"max":[
				2.7899999618530273,
				2.994999885559082,
				0.40000003576278687
			],
			"min":[
				2.1700000762939453,
				0.24500000476837158,
				-1.5999999046325684
			],
			"type":"VEC3"
		},
		{
			"bufferView":52,
			"componentType":5126,
			"count":1272,
			"type":"VEC3"
		},
		{
			"bufferView":53,
			"componentType":5126,
			"count":1272,
			"type":"VEC2"
		},
		{
			"bufferView":54,
			"componentType":5123,
			"count":2292,
			"type":"SCALAR"
		},
		{
			"bufferView":55,
			"componentType":5126,
			"count":2322,
			"max":[
				2.865000009536743,
				0.8700000047683716,
				-1.649999976158142
			],
			"min":[
				2.2649998664855957,
				0.25,
				-4.849999904632568
			],
			"type":"VEC3"
		},
		{
			"bufferView":56,
			"componentType":5126,
			"count":2322,
			"type":"VEC3"
		},
		{
			"bufferView":57,
			"componentType":5126,
			"count":2322,
			"type":"VEC2"
		},
		{
			"bufferView":58,
			"componentType":5123,
			"count":3924,
			"type":"SCALAR"
		}
	],
	"bufferViews":[
		{
			"buffer":0,
			"byteLength":424224,
			"byteOffset":0,
			"target":34962
		},
		{
			"buffer":0,
			"byteLength":424224,
			"byteOffset":424224,
			"target":34962
		},
		{
			"buffer":0,
			"byteLength":282816,
			"byteOffset":848448,
			"target":34962
		},
		{
			"buffer":0,
			"byteLength":106152,
			"byteOffset":1131264,
			"target":34963
		},
		{
			"buffer":0,
			"byteLength":1728,
			"byteOffset":1237416,
			"target":34962
		},
		{
			"buffer":0,
			"byteLength":1728,
			"byteOffset":1239144,
			"target":34962
		},
		{
			"buffer":0,
			"byteLength":1152,
			"byteOffset":1240872,
			"target":34962
		},
		{
			"buffer":0,
			"byteLength":600,
			"byteOffset":1242024,
			"target":34963
		},
		{
			"buffer":0,
			"byteLength":330696,
			"byteOffset":1242624,
			"target":34962
		},
		{
			"buffer":0,
			"byteLength":330696,
			"byteOffset":1573320,
			"target":34962
		},
		{
			"buffer":0,
			"byteLength":220464,
			"byteOffset":1904016,
			"target":34962
		},
		{
			"buffer":0,
			"byteLength":86256,
			"byteOffset":2124480,
			"target":34963
		},
		{
			"buffer":0,
			"byteLength":1152,
			"byteOffset":2210736,
			"target":34962
		},
		{
			"buffer":0,
			"byteLength":1152,
			"byteOffset":2211888,
			"target":34962
		},
		{
			"buffer":0,
			"byteLength":768,
			"byteOffset":2213040,
			"target":34962
		},
		{
			"buffer":0,
			"byteLength":312,
			"byteOffset":2213808,
			"target":34963
		},
		{
			"buffer":0,
			"byteLength":10872,
			"byteOffset":2214120,
			"target":34962
		},
		{
			"buffer":0,
			"byteLength":10872,
			"byteOffset":2224992,
			"target":34962
		},
		{
			"buffer":0,
			"byteLength":7248,
			"byteOffset":2235864,
			"target":34962
		},
		{
			"buffer":0,
			"byteLength":3696,
			"byteOffset":2243112,
			"target":34963
		},
		{
			"buffer":0,
			"byteLength":288,
			"byteOffset":2246808,
			"target":34962
		},
		{
			"buffer":0,
			"byteLength":288,
			"byteOffset":2247096,
			"target":34962
		},
		{
			"buffer":0,
			"byteLength":192,
			"byteOffset":2247384,
			"target":34962
		},
		{
			"buffer":0,
			"byteLength":72,
			"byteOffset":2247576,
			"target":34963
		},
		{
			"buffer":0,
			"byteLength":864,
			"byteOffset":2247648,
			"target":34962
		},
		{
			"buffer":0,
			"byteLength":864,
			"byteOffset":2248512,
			"target":34962
		},
		{
			"buffer":0,
			"byteLength":576,
			"byteOffset":2249376,
			"target":34962
		},
		{
			"buffer":0,
			"byteLength":240,
			"byteOffset":2249952,
			"target":34963
		},
		{
			"buffer":0,
			"byteLength":576,
			"byteOffset":2250192,
			"target":34962
		},
		{
			"buffer":0,
			"byteLength":576,
			"byteOffset":2250768,
			"target":34962
		},
		{
			"buffer":0,
			"byteLength":384,
			"byteOffset":2251344,
			"target":34962
		},
		{
			"buffer":0,
			"byteLength":168,
			"byteOffset":2251728,
			"target":34963
		},
		{
			"buffer":0,
			"byteLength":576,
			"byteOffset":2251896,
			"target":34962
		},
		{
			"buffer":0,
			"byteLength":576,
			"byteOffset":2252472,
			"target":34962
		},
		{
			"buffer":0,
			"byteLength":384,
			"byteOffset":2253048,
			"target":34962
		},
		{
			"buffer":0,
			"byteLength":168,
			"byteOffset":2253432,
			"target":34963
		},
		{
			"buffer":0,
			"byteLength":288,
			"byteOffset":2253600,
			"target":34962
		},
		{
			"buffer":0,
			"byteLength":288,
			"byteOffset":2253888,
			"target":34962
		},
		{
			"buffer":0,
			"byteLength":192,
			"byteOffset":2254176,
			"target":34962
		},
		{
			"buffer":0,
			"byteLength":48864,
			"byteOffset":2254368,
			"target":34962
		},
		{
			"buffer":0,
			"byteLength":48864,
			"byteOffset":2303232,
			"target":34962
		},
		{
			"buffer":0,
			"byteLength":32576,
			"byteOffset":2352096,
			"target":34962
		},
		{
			"buffer":0,
			"byteLength":19464,
			"byteOffset":2384672,
			"target":34963
		},
		{
			"buffer":0,
			"byteLength":5184,
			"byteOffset":2404136,
			"target":34962
		},
		{
			"buffer":0,
			"byteLength":5184,
			"byteOffset":2409320,
			"target":34962
		},
		{
			"buffer":0,
			"byteLength":3456,
			"byteOffset":2414504,
			"target":34962
		},
		{
			"buffer":0,
			"byteLength":1656,
			"byteOffset":2417960,
			"target":34963
		},
		{
			"buffer":0,
			"byteLength":864,
			"byteOffset":2419616,
			"target":34962
		},
		{
			"buffer":0,
			"byteLength":864,
			"byteOffset":2420480,
			"target":34962
		},
		{
			"buffer":0,
			"byteLength":576,
			"byteOffset":2421344,
			"target":34962
		},
		{
			"buffer":0,
			"byteLength":216,
			"byteOffset":2421920,
			"target":34963
		},
		{
			"buffer":0,
			"byteLength":15264,
			"byteOffset":2422136,
			"target":34962
		},
		{
			"buffer":0,
			"byteLength":15264,
			"byteOffset":2437400,
			"target":34962
		},
		{
			"buffer":0,
			"byteLength":10176,
			"byteOffset":2452664,
			"target":34962
		},
		{
			"buffer":0,
			"byteLength":4584,
			"byteOffset":2462840,
			"target":34963
		},
		{
			"buffer":0,
			"byteLength":27864,
			"byteOffset":2467424,
			"target":34962
		},
		{
			"buffer":0,
			"byteLength":27864,
			"byteOffset":2495288,
			"target":34962
		},
		{
			"buffer":0,
			"byteLength":18576,
			"byteOffset":2523152,
			"target":34962
		},
		{
			"buffer":0,
			"byteLength":7848,
			"byteOffset":2541728,
			"target":34963
		}
	],
	"buffers":[
		{
			"byteLength":2549576,
			"uri":"classroomMini.bin"
		}
	]
}
