{
	"asset":{
		"generator":"Khronos glTF Blender I/O v4.5.47",
		"version":"2.0"
	},
	"extensionsUsed":[
		"KHR_materials_emissive_strength"
	],
	"scene":0,
	"scenes":[
		{
			"name":"Scene",
			"nodes":[
				0,
				1,
				2,
				3,
				4,
				5,
				6,
				7,
				8,
				9,
				10,
				11,
				12,
				13,
				14,
				15
			]
		}
	],
	"nodes":[
		{
			"mesh":0,
			"name":"\u67dc\u5b50",
			"translation":[
				2.5,
				0.550000011920929,
				-1.149999976158142
			]
		},
		{
			"mesh":1,
			"name":"\u4e66\u67b6",
			"translation":[
				2.4000000953674316,
				1.6200000047683716,
				1.5
			]
		},
		{
			"mesh":2,
			"name":"\u7a97\u6237",
			"translation":[
				2.697486639022827,
				1.3903042078018188,
				-1.5
			]
		},
		{
			"mesh":3,
			"name":"\u5c0f\u4e66\u67b6",
			"translation":[
				-2.25,
				2.9200000762939453,
				-2.737499952316284
			]
		},
		{
			"mesh":4,
			"name":"\u65f6\u949f",
			"rotation":[
				0,
				0,
				-0.7071068286895752,
				0.7071068286895752
			],
			"translation":[
				0.5,
				3.299999952316284,
				-2.6785387992858887
			]
		},
		{
			"mesh":5,
			"name":"\u97f3\u54cd",
			"translation":[
				-0.75,
				3.299999952316284,
				-2.700000047683716
			]
		},
		{
			"mesh":5,
			"name":"\u97f3\u54cd.001",
			"translation":[
				-0.39322978258132935,
				3.299999952316284,
				-2.700000047683716
			]
		},
		{
			"mesh":5,
			"name":"\u97f3\u54cd.002",
			"translation":[
				1.3499999046325684,
				3.299999952316284,
				-2.700000047683716
			]
		},
		{
			"mesh":5,
			"name":"\u97f3\u54cd.003",
			"translation":[
				1.7067701816558838,
				3.299999952316284,
				-2.700000047683716
			]
		},
		{
			"mesh":6,
			"name":"\u5730\u677f",
			"translation":[
				0,
				-10,
				0
			]
		},
		{
			"mesh":7,
			"name":"\u623f\u95f4"
		},
		{
			"mesh":8,
			"name":"\u5899\u58c1"
		},
		{
			"mesh":9,
			"name":"\u5e73\u9762",
			"translation":[
				0,
				1.2999999523162842,
				-1.649999976158142
			]
		},
		{
			"mesh":10,
			"name":"\u5927\u9ed1\u677f",
			"translation":[
				0.5,
				2,
				-2.759183883666992
			]
		},
		{
			"mesh":11,
			"name":"\u5c0f\u9ed1\u677f",
			"translation":[
				-2,
				2,
				-2.75
			]
		},
		{
			"mesh":12,
			"name":"\u53f0\u9636",
			"scale":[
				2,
				0.07500000298023224,
				0.75
			],
			"translation":[
				0,
				0.33000001311302185,
				-2
			]
		}
	],
	"materials":[
		{
			"doubleSided":true,
			"name":"\u67dc\u5b50",
			"pbrMetallicRoughness":{
				"baseColorFactor":[
					1,
					0.2958420217037201,
					0.12863336503505707,
					1
				],
				"metallicFactor":0,
				"roughnessFactor":0.5
			}
		},
		{
			"doubleSided":true,
			"emissiveFactor":[
				1,
				0.9414955973625183,
				0.3753499984741211
			],
			"extensions":{
				"KHR_materials_emissive_strength":{
					"emissiveStrength":100
				}
			},
			"name":"\u53d1\u5149\u7a97\u6237",
			"pbrMetallicRoughness":{
				"baseColorFactor":[
					0.9351944923400879,
					1,
					0.41907191276550293,
					1
				],
				"metallicFactor":0,
				"roughnessFactor":0.5
			}
		},
		{
			"doubleSided":true,
			"name":"\u91d1\u5c5e\u6846",
			"pbrMetallicRoughness":{
				"baseColorFactor":[
					0.6800000071525574,
					0.7135999798774719,
					0.800000011920929,
					1
				],
				"metallicFactor":0,
				"roughnessFactor":0.5
			}
		},
		{
			"doubleSided":true,
			"name":"\u6750\u8d28.001",
			"pbrMetallicRoughness":{
				"baseColorFactor":[
					1,
					0.9448949098587036,
					0.512111485004425,
					1
				],
				"metallicFactor":0,
				"roughnessFactor":0.5
			}
		},
		{
			"doubleSided":true,
			"name":"\u6750\u8d28.002",
			"pbrMetallicRoughness":{
				"baseColorFactor":[
					0.7555550932884216,
					0.23877115547657013,
					0.06967941671609879,
					1
				],
				"metallicFactor":0,
				"roughnessFactor":0.5
			}
		},
		{
			"doubleSided":true,
			"name":"\u5730\u677f",
			"pbrMetallicRoughness":{
				"baseColorFactor":[
					0.8007017374038696,
					0.3186860680580139,
					0.20535123348236084,
					1
				],
				"metallicFactor":0,
				"roughnessFactor":0.5
			}
		},
		{
			"doubleSided":true,
			"name":"\u623f\u95f4",
			"pbrMetallicRoughness":{
				"metallicFactor":0,
				"roughnessFactor":0.5
			}
		},
		{
			"doubleSided":true,
			"name":"\u8bb2\u53f0",
			"pbrMetallicRoughness":{
				"baseColorFactor":[
					0.8370367288589478,
					0.12570077180862427,
					0.019363801926374435,
					1
				],
				"metallicFactor":0.5,
				"roughnessFactor":0.699999988079071
			}
		},
		{
			"doubleSided":true,
			"name":"\u9ed1\u677f",
			"pbrMetallicRoughness":{
				"baseColorFactor":[
					0.012304384261369705,
					0.30000001192092896,
					0.01311315968632698,
					1
				],
				"metallicFactor":0,
				"roughnessFactor":0.5
			}
		},
		{
			"doubleSided":true,
			"name":"\u9ed1\u677f\u6846",
			"pbrMetallicRoughness":{
				"baseColorFactor":[
					0.4815519452095032,
					0.1325521171092987,
					0,
					1
				],
				"metallicFactor":0,
				"roughnessFactor":0.5
			}
		},
		{
			"doubleSided":true,
			"name":"\u53f0\u9636",
			"pbrMetallicRoughness":{
				"baseColorFactor":[
					0.7936481237411499,
					0.145771324634552,
					0.011213203892111778,
					1
				],
				"metallicFactor":0,
				"roughnessFactor":0.5
			}
		}
	],
	"meshes":[
		{
			"name":"\u7acb\u65b9\u4f53.008",
			"primitives":[
				{
					"attributes":{
						"POSITION":0,
						"NORMAL":1,
						"TEXCOORD_0":2
					},
					"indices":3,
					"material":0
				}
			]
		},
		{
			"name":"\u7acb\u65b9\u4f53.010",
			"primitives":[
				{
					"attributes":{
						"POSITION":4,
						"NORMAL":5,
						"TEXCOORD_0":6
					},
					"indices":7,
					"material":0
				}
			]
		},
		{
			"name":"\u7acb\u65b9\u4f53.019",
			"primitives":[
				{
					"attributes":{
						"POSITION":8,
						"NORMAL":9,
						"TEXCOORD_0":10
					},
					"indices":11,
					"material":1
				},
				{
					"attributes":{
						"POSITION":12,
						"NORMAL":13,
						"TEXCOORD_0":14
					},
					"indices":15,
					"material":2
				}
			]
		},
		{
			"name":"\u7acb\u65b9\u4f53.013",
			"primitives":[
				{
					"attributes":{
						"POSITION":16,
						"NORMAL":17,
						"TEXCOORD_0":18
					},
					"indices":19,
					"material":0
				}
			]
		},
		{
			"name":"\u7acb\u65b9\u4f53.015",
			"primitives":[
				{
					"attributes":{
						"POSITION":20,
						"NORMAL":21,
						"TEXCOORD_0":22
					},
					"indices":23,
					"material":2
				},
				{
					"attributes":{
						"POSITION":24,
						"NORMAL":25,
						"TEXCOORD_0":26
					},
					"indices":27,
					"material":3
				}
			]
		},
		{
			"name":"\u7acb\u65b9\u4f53.016",
			"primitives":[
				{
					"attributes":{
						"POSITION":28,
						"NORMAL":29,
						"TEXCOORD_0":30
					},
					"indices":31,
					"material":4
				}
			]
		},
		{
			"name":"wall.001",
			"primitives":[
				{
					"attributes":{
						"POSITION":32,
						"NORMAL":33,
						"TEXCOORD_0":34
					},
					"indices":35,
					"material":5
				}
			]
		},
		{
			"name":"wall",
			"primitives":[
				{
					"attributes":{
						"POSITION":36,
						"NORMAL":37,
						"TEXCOORD_0":38
					},
					"indices":39,
					"material":6
				}
			]
		},
		{
			"name":"wall.002",
			"primitives":[
				{
					"attributes":{
						"POSITION":40,
						"NORMAL":41,
						"TEXCOORD_0":42
					},
					"indices":43,
					"material":5
				}
			]
		},
		{
			"name":"\u5e73\u9762",
			"primitives":[
				{
					"attributes":{
						"POSITION":44,
						"NORMAL":45,
						"TEXCOORD_0":46
					},
					"indices":47,
					"material":7
				}
			]
		},
		{
			"name":"\u7acb\u65b9\u4f53.001",
			"primitives":[
				{
					"attributes":{
						"POSITION":48,
						"NORMAL":49,
						"TEXCOORD_0":50
					},
					"indices":51,
					"material":8
				},
				{
					"attributes":{
						"POSITION":52,
						"NORMAL":53,
						"TEXCOORD_0":54
					},
					"indices":55,
					"material":9
				}
			]
		},
		{
			"name":"\u7acb\u65b9\u4f53.002",
			"primitives":[
				{
					"attributes":{
						"POSITION":56,
						"NORMAL":57,
						"TEXCOORD_0":58
					},
					"indices":51,
					"material":8
				},
				{
					"attributes":{
						"POSITION":59,
						"NORMAL":60,
						"TEXCOORD_0":61
					},
					"indices":62,
					"material":9
				}
			]
		},
		{
			"name":"\u7acb\u65b9\u4f53.003",
			"primitives":[
				{
					"attributes":{
						"POSITION":63,
						"NORMAL":64,
						"TEXCOORD_0":65
					},
					"indices":66,
					"material":10
				}
			]
		}
	],
	"accessors":[
		{
			"bufferView":0,
			"componentType":5126,
			"count":2318,
			"max":[
				0.2750000059604645,
				0.320000022649765,
				1.600000023841858
			],
			"min":[
				-0.32500001788139343,
				-0.30000001192092896,
				-1.600000023841858
			],
			"type":"VEC3"
		},
		{
			"bufferView":1,
			"componentType":5126,
			"count":2318,
			"type":"VEC3"
		},
		{
			"bufferView":2,
			"componentType":5126,
			"count":2318,
			"type":"VEC2"
		},
		{
			"bufferView":3,
			"componentType":5123,
			"count":3924,
			"type":"SCALAR"
		},
		{
			"bufferView":4,
			"componentType":5126,
			"count":1272,
			"max":[
				0.30000001192092896,
				1.375,
				1
			],
			"min":[
				-0.320000022649765,
				-1.375,
				-1
			],
			"type":"VEC3"
		},
		{
			"bufferView":5,
			"componentType":5126,
			"count":1272,
			"type":"VEC3"
		},
		{
			"bufferView":6,
			"componentType":5126,
			"count":1272,
			"type":"VEC2"
		},
		{
			"bufferView":7,
			"componentType":5123,
			"count":2292,
			"type":"SCALAR"
		},
		{
			"bufferView":8,
			"componentType":5126,
			"count":4,
			"max":[
				0.0899999588727951,
				1.8596956729888916,
				0.8999999761581421
			],
			"min":[
				0.0899999588727951,
				0.05969572067260742,
				-0.8999999761581421
			],
			"type":"VEC3"
		},
		{
			"bufferView":9,
			"componentType":5126,
			"count":4,
			"type":"VEC3"
		},
		{
			"bufferView":10,
			"componentType":5126,
			"count":4,
			"type":"VEC2"
		},
		{
			"bufferView":11,
			"componentType":5123,
			"count":6,
			"type":"SCALAR"
		},
		{
			"bufferView":12,
			"componentType":5126,
			"count":92,
			"max":[
				0.10000000149011612,
				1.9596956968307495,
				1
			],
			"min":[
				-0.10000000149011612,
				-0.05000000074505806,
				-1
			],
			"type":"VEC3"
		},
		{
			"bufferView":13,
			"componentType":5126,
			"count":92,
			"type":"VEC3"
		},
		{
			"bufferView":14,
			"componentType":5126,
			"count":92,
			"type":"VEC2"
		},
		{
			"bufferView":15,
			"componentType":5123,
			"count":150,
			"type":"SCALAR"
		},
		{
			"bufferView":16,
			"componentType":5126,
			"count":72,
			"max":[
				0.7250000238418579,
				0.0949999988079071,
				0.12000000476837158
			],
			"min":[
				-0.22499999403953552,
				-0.06499999761581421,
				-0.06499999761581421
			],
			"type":"VEC3"
		},
		{
			"bufferView":17,
			"componentType":5126,
			"count":72,
			"type":"VEC3"
		},
		{
			"bufferView":18,
			"componentType":5126,
			"count":72,
			"type":"VEC2"
		},
		{
			"bufferView":19,
			"componentType":5123,
			"count":108,
			"type":"SCALAR"
		},
		{
			"bufferView":20,
			"componentType":5126,
			"count":400,
			"max":[
				0.3499999940395355,
				0.34999996423721313,
				0.014999999664723873
			],
			"min":[
				-0.3499999940395355,
				-0.34999996423721313,
				-0.12546125054359436
			],
			"type":"VEC3"
		},
		{
			"bufferView":21,
			"componentType":5126,
			"count":400,
			"type":"VEC3"
		},
		{
			"bufferView":22,
			"componentType":5126,
			"count":400,
			"type":"VEC2"
		},
		{
			"bufferView":23,
			"componentType":5123,
			"count":738,
			"type":"SCALAR"
		},
		{
			"bufferView":24,
			"componentType":5126,
			"count":32,
			"max":[
				0.31483063101768494,
				0.31483060121536255,
				-0.06046122685074806
			],
			"min":[
				-0.31483063101768494,
				-0.31483060121536255,
				-0.06046125665307045
			],
			"type":"VEC3"
		},
		{
			"bufferView":25,
			"componentType":5126,
			"count":32,
			"type":"VEC3"
		},
		{
			"bufferView":26,
			"componentType":5126,
			"count":32,
			"type":"VEC2"
		},
		{
			"bufferView":27,
			"componentType":5123,
			"count":90,
			"type":"SCALAR"
		},
		{
			"bufferView":28,
			"componentType":5126,
			"count":3768,
			"max":[
				0.17499999701976776,
				0.17499999701976776,
				0.0925000011920929
			],
			"min":[
				-0.17499999701976776,
				-0.17499999701976776,
				-0.0925000011920929
			],
			"type":"VEC3"
		},
		{
			"bufferView":29,
			"componentType":5126,
			"count":3768,
			"type":"VEC3"
		},
		{
			"bufferView":30,
			"componentType":5126,
			"count":3768,
			"type":"VEC2"
		},
		{
			"bufferView":31,
			"componentType":5123,
			"count":9732,
			"type":"SCALAR"
		},
		{
			"bufferView":32,
			"componentType":5126,
			"count":10720,
			"max":[
				2.7799999713897705,
				10.25,
				2.9800000190734863
			],
			"min":[
				-2.9800000190734863,
				10.199999809265137,
				-2.7799999713897705
			],
			"type":"VEC3"
		},
		{
			"bufferView":33,
			"componentType":5126,
			"count":10720,
			"type":"VEC3"
		},
		{
			"bufferView":34,
			"componentType":5126,
			"count":10720,
			"type":"VEC2"
		},
		{
			"bufferView":35,
			"componentType":5123,
			"count":16740,
			"type":"SCALAR"
		},
		{
			"bufferView":36,
			"componentType":5126,
			"count":42,
			"max":[
				3,
				4.039083957672119,
				3
			],
			"min":[
				-3,
				0,
				-3
			],
			"type":"VEC3"
		},
		{
			"bufferView":37,
			"componentType":5126,
			"count":42,
			"type":"VEC3"
		},
		{
			"bufferView":38,
			"componentType":5126,
			"count":42,
			"type":"VEC2"
		},
		{
			"bufferView":39,
			"componentType":5123,
			"count":72,
			"type":"SCALAR"
		},
		{
			"bufferView":40,
			"componentType":5126,
			"count":12528,
			"max":[
				2.799999952316284,
				1.2790839672088623,
				2.990000009536743
			],
			"min":[
				-2.990000009536743,
				0.25999999046325684,
				-2.799999952316284
			],
			"type":"VEC3"
		},
		{
			"bufferView":41,
			"componentType":5126,
			"count":12528,
			"type":"VEC3"
		},
		{
			"bufferView":42,
			"componentType":5126,
			"count":12528,
			"type":"VEC2"
		},
		{
			"bufferView":43,
			"componentType":5123,
			"count":18792,
			"type":"SCALAR"
		},
		{
			"bufferView":44,
			"componentType":5126,
			"count":48,
			"max":[
				1,
				0,
				0.5
			],
			"min":[
				-1,
				-0.9000000357627869,
				-0.5
			],
			"type":"VEC3"
		},
		{
			"bufferView":45,
			"componentType":5126,
			"count":48,
			"type":"VEC3"
		},
		{
			"bufferView":46,
			"componentType":5126,
			"count":48,
			"type":"VEC2"
		},
		{
			"bufferView":47,
			"componentType":5123,
			"count":84,
			"type":"SCALAR"
		},
		{
			"bufferView":48,
			"componentType":5126,
			"count":4,
			"max":[
				1.4500000476837158,
				0.699999988079071,
				0
			],
			"min":[
				-1.4500000476837158,
				-0.699999988079071,
				0
			],
			"type":"VEC3"
		},
		{
			"bufferView":49,
			"componentType":5126,
			"count":4,
			"type":"VEC3"
		},
		{
			"bufferView":50,
			"componentType":5126,
			"count":4,
			"type":"VEC2"
		},
		{
			"bufferView":51,
			"componentType":5123,
			"count":6,
			"type":"SCALAR"
		},
		{
			"bufferView":52,
			"componentType":5126,
			"count":68,
			"max":[
				1.5,
				0.75,
				0.24696573615074158
			],
			"min":[
				-1.5,
				-0.75,
				-0.05000000074505806
			],
			"type":"VEC3"
		},
		{
			"bufferView":53,
			"componentType":5126,
			"count":68,
			"type":"VEC3"
		},
		{
			"bufferView":54,
			"componentType":5126,
			"count":68,
			"type":"VEC2"
		},
		{
			"bufferView":55,
			"componentType":5123,
			"count":114,
			"type":"SCALAR"
		},
		{
			"bufferView":56,
			"componentType":5126,
			"count":4,
			"max":[
				0.550000011920929,
				0.550000011920929,
				0
			],
			"min":[
				-0.550000011920929,
				-0.550000011920929,
				0
			],
			"type":"VEC3"
		},
		{
			"bufferView":57,
			"componentType":5126,
			"count":4,
			"type":"VEC3"
		},
		{
			"bufferView":58,
			"componentType":5126,
			"count":4,
			"type":"VEC2"
		},
		{
			"bufferView":59,
			"componentType":5126,
			"count":44,
			"max":[
				0.6000000238418579,
				0.6000000238418579,
				0.05000000074505806
			],
			"min":[
				-0.6000000238418579,
				-0.6000000238418579,
				-0.05000000074505806
			],
			"type":"VEC3"
		},
		{
			"bufferView":60,
			"componentType":5126,
			"count":44,
			"type":"VEC3"
		},
		{
			"bufferView":61,
			"componentType":5126,
			"count":44,
			"type":"VEC2"
		},
		{
			"bufferView":62,
			"componentType":5123,
			"count":78,
			"type":"SCALAR"
		},
		{
			"bufferView":63,
			"componentType":5126,
			"count":24,
			"max":[
				1,
				1,
				1
			],
			"min":[
				-1,
				-1,
				-1
			],
			"type":"VEC3"
		},
		{
			"bufferView":64,
			"componentType":5126,
			"count":24,
			"type":"VEC3"
		},
		{
			"bufferView":65,
			"componentType":5126,
			"count":24,
			"type":"VEC2"
		},
		{
			"bufferView":66,
			"componentType":5123,
			"count":36,
			"type":"SCALAR"
		}
	],
	"bufferViews":[
		{
			"buffer":0,
			"byteLength":27816,
			"byteOffset":0,
			"target":34962
		},
		{
			"buffer":0,
			"byteLength":27816,
			"byteOffset":27816,
			"target":34962
		},
		{
			"buffer":0,
			"byteLength":18544,
			"byteOffset":55632,
			"target":34962
		},
		{
			"buffer":0,
			"byteLength":7848,
			"byteOffset":74176,
			"target":34963
		},
		{
			"buffer":0,
			"byteLength":15264,
			"byteOffset":82024,
			"target":34962
		},
		{
			"buffer":0,
			"byteLength":15264,
			"byteOffset":97288,
			"target":34962
		},
		{
			"buffer":0,
			"byteLength":10176,
			"byteOffset":112552,
			"target":34962
		},
		{
			"buffer":0,
			"byteLength":4584,
			"byteOffset":122728,
			"target":34963
		},
		{
			"buffer":0,
			"byteLength":48,
			"byteOffset":127312,
			"target":34962
		},
		{
			"buffer":0,
			"byteLength":48,
			"byteOffset":127360,
			"target":34962
		},
		{
			"buffer":0,
			"byteLength":32,
			"byteOffset":127408,
			"target":34962
		},
		{
			"buffer":0,
			"byteLength":12,
			"byteOffset":127440,
			"target":34963
		},
		{
			"buffer":0,
			"byteLength":1104,
			"byteOffset":127452,
			"target":34962
		},
		{
			"buffer":0,
			"byteLength":1104,
			"byteOffset":128556,
			"target":34962
		},
		{
			"buffer":0,
			"byteLength":736,
			"byteOffset":129660,
			"target":34962
		},
		{
			"buffer":0,
			"byteLength":300,
			"byteOffset":130396,
			"target":34963
		},
		{
			"buffer":0,
			"byteLength":864,
			"byteOffset":130696,
			"target":34962
		},
		{
			"buffer":0,
			"byteLength":864,
			"byteOffset":131560,
			"target":34962
		},
		{
			"buffer":0,
			"byteLength":576,
			"byteOffset":132424,
			"target":34962
		},
		{
			"buffer":0,
			"byteLength":216,
			"byteOffset":133000,
			"target":34963
		},
		{
			"buffer":0,
			"byteLength":4800,
			"byteOffset":133216,
			"target":34962
		},
		{
			"buffer":0,
			"byteLength":4800,
			"byteOffset":138016,
			"target":34962
		},
		{
			"buffer":0,
			"byteLength":3200,
			"byteOffset":142816,
			"target":34962
		},
		{
			"buffer":0,
			"byteLength":1476,
			"byteOffset":146016,
			"target":34963
		},
		{
			"buffer":0,
			"byteLength":384,
			"byteOffset":147492,
			"target":34962
		},
		{
			"buffer":0,
			"byteLength":384,
			"byteOffset":147876,
			"target":34962
		},
		{
			"buffer":0,
			"byteLength":256,
			"byteOffset":148260,
			"target":34962
		},
		{
			"buffer":0,
			"byteLength":180,
			"byteOffset":148516,
			"target":34963
		},
		{
			"buffer":0,
			"byteLength":45216,
			"byteOffset":148696,
			"target":34962
		},
		{
			"buffer":0,
			"byteLength":45216,
			"byteOffset":193912,
			"target":34962
		},
		{
			"buffer":0,
			"byteLength":30144,
			"byteOffset":239128,
			"target":34962
		},
		{
			"buffer":0,
			"byteLength":19464,
			"byteOffset":269272,
			"target":34963
		},
		{
			"buffer":0,
			"byteLength":128640,
			"byteOffset":288736,
			"target":34962
		},
		{
			"buffer":0,
			"byteLength":128640,
			"byteOffset":417376,
			"target":34962
		},
		{
			"buffer":0,
			"byteLength":85760,
			"byteOffset":546016,
			"target":34962
		},
		{
			"buffer":0,
			"byteLength":33480,
			"byteOffset":631776,
			"target":34963
		},
		{
			"buffer":0,
			"byteLength":504,
			"byteOffset":665256,
			"target":34962
		},
		{
			"buffer":0,
			"byteLength":504,
			"byteOffset":665760,
			"target":34962
		},
		{
			"buffer":0,
			"byteLength":336,
			"byteOffset":666264,
			"target":34962
		},
		{
			"buffer":0,
			"byteLength":144,
			"byteOffset":666600,
			"target":34963
		},
		{
			"buffer":0,
			"byteLength":150336,
			"byteOffset":666744,
			"target":34962
		},
		{
			"buffer":0,
			"byteLength":150336,
			"byteOffset":817080,
			"target":34962
		},
		{
			"buffer":0,
			"byteLength":100224,
			"byteOffset":967416,
			"target":34962
		},
		{
			"buffer":0,
			"byteLength":37584,
			"byteOffset":1067640,
			"target":34963
		},
		{
			"buffer":0,
			"byteLength":576,
			"byteOffset":1105224,
			"target":34962
		},
		{
			"buffer":0,
			"byteLength":576,
			"byteOffset":1105800,
			"target":34962
		},
		{
			"buffer":0,
			"byteLength":384,
			"byteOffset":1106376,
			"target":34962
		},
		{
			"buffer":0,
			"byteLength":168,
			"byteOffset":1106760,
			"target":34963
		},
		{
			"buffer":0,
			"byteLength":48,
			"byteOffset":1106928,
			"target":34962
		},
		{
			"buffer":0,
			"byteLength":48,
			"byteOffset":1106976,
			"target":34962
		},
		{
			"buffer":0,
			"byteLength":32,
			"byteOffset":1107024,
			"target":34962
		},
		{
			"buffer":0,
			"byteLength":12,
			"byteOffset":1107056,
			"target":34963
		},
		{
			"buffer":0,
			"byteLength":816,
			"byteOffset":1107068,
			"target":34962
		},
		{
			"buffer":0,
			"byteLength":816,
			"byteOffset":1107884,
			"target":34962
		},
		{
			"buffer":0,
			"byteLength":544,
			"byteOffset":1108700,
			"target":34962
		},
		{
			"buffer":0,
			"byteLength":228,
			"byteOffset":1109244,
			"target":34963
		},
		{
			"buffer":0,
			"byteLength":48,
			"byteOffset":1109472,
			"target":34962
		},
		{
			"buffer":0,
			"byteLength":48,
			"byteOffset":1109520,
			"target":34962
		},
		{
			"buffer":0,
			"byteLength":32,
			"byteOffset":1109568,
			"target":34962
		},
		{
			"buffer":0,
			"byteLength":528,
			"byteOffset":1109600,
			"target":34962
		},
		{
			"buffer":0,
			"byteLength":528,
			"byteOffset":1110128,
			"target":34962
		},
		{
			"buffer":0,
			"byteLength":352,
			"byteOffset":1110656,
			"target":34962
		},
		{
			"buffer":0,
			"byteLength":156,
			"byteOffset":1111008,
			"target":34963
		},
		{
			"buffer":0,
			"byteLength":288,
			"byteOffset":1111164,
			"target":34962
		},
		{
			"buffer":0,
			"byteLength":288,
			"byteOffset":1111452,
			"target":34962
		},
		{
			"buffer":0,
			"byteLength":192,
			"byteOffset":1111740,
			"target":34962
		},
		{
			"buffer":0,
			"byteLength":72,
			"byteOffset":1111932,
			"target":34963
		}
	],
	"buffers":[
		{
			"byteLength":1112004,
			"uri":"classroomMiniColor.bin"
		}
	]
}
