{
	"asset":{
		"generator":"Khronos glTF Blender I/O v4.5.47",
		"version":"2.0"
	},
	"scene":0,
	"scenes":[
		{
			"name":"Scene",
			"nodes":[
				0,
				1,
				2,
				3,
				4,
				5,
				6,
				7,
				8,
				9,
				10,
				11,
				12,
				13,
				14,
				15,
				16,
				17
			]
		}
	],
	"nodes":[
		{
			"mesh":0,
			"name":"\u5c0f\u4e66\u67b6",
			"translation":[
				-2.25,
				2.9200000762939453,
				-2.737499952316284
			]
		},
		{
			"mesh":1,
			"name":"\u65f6\u949f",
			"rotation":[
				0,
				0,
				-0.7071068286895752,
				0.7071068286895752
			],
			"translation":[
				0.5,
				3.299999952316284,
				-2.6785387992858887
			]
		},
		{
			"mesh":2,
			"name":"\u97f3\u54cd",
			"translation":[
				-0.75,
				3.299999952316284,
				-2.700000047683716
			]
		},
		{
			"mesh":2,
			"name":"\u97f3\u54cd.001",
			"translation":[
				-0.39322978258132935,
				3.299999952316284,
				-2.700000047683716
			]
		},
		{
			"mesh":2,
			"name":"\u97f3\u54cd.002",
			"translation":[
				1.3499999046325684,
				3.299999952316284,
				-2.700000047683716
			]
		},
		{
			"mesh":2,
			"name":"\u97f3\u54cd.003",
			"translation":[
				1.7067701816558838,
				3.299999952316284,
				-2.700000047683716
			]
		},
		{
			"mesh":3,
			"name":"\u67dc\u5b50",
			"translation":[
				2.5,
				0.550000011920929,
				-1.149999976158142
			]
		},
		{
			"mesh":4,
			"name":"\u67dc\u5b50.001",
			"translation":[
				2.5,
				0.550000011920929,
				5.349999904632568
			]
		},
		{
			"mesh":5,
			"name":"\u4e66\u67b6",
			"translation":[
				2.4000000953674316,
				1.6200000047683716,
				1.5
			]
		},
		{
			"mesh":6,
			"name":"\u6559\u5ba4"
		},
		{
			"mesh":7,
			"name":"\u5e73\u9762",
			"translation":[
				0,
				1.2999999523162842,
				-1.649999976158142
			]
		},
		{
			"mesh":8,
			"name":"\u5927\u9ed1\u677f",
			"translation":[
				0.5,
				2,
				-2.759183883666992
			]
		},
		{
			"mesh":9,
			"name":"\u5c0f\u9ed1\u677f",
			"translation":[
				-2,
				2,
				-2.75
			]
		},
		{
			"mesh":10,
			"name":"\u53f0\u9636",
			"scale":[
				2,
				0.07500000298023224,
				0.75
			],
			"translation":[
				0,
				0.33000001311302185,
				-2
			]
		},
		{
			"mesh":11,
			"name":"\u5899\u58c1"
		},
		{
			"mesh":12,
			"name":"\u5730\u677f"
		},
		{
			"mesh":13,
			"name":"\u7a97\u6237",
			"translation":[
				2.75994873046875,
				1.3903042078018188,
				-1.5
			]
		},
		{
			"mesh":14,
			"name":"\u7a97\u6237.001",
			"translation":[
				2.75994873046875,
				1.3903042078018188,
				4.431801795959473
			]
		}
	],
	"meshes":[
		{
			"name":"\u7acb\u65b9\u4f53.013",
			"primitives":[
				{
					"attributes":{
						"POSITION":0,
						"NORMAL":1,
						"TEXCOORD_0":2
					},
					"indices":3
				}
			]
		},
		{
			"name":"\u7acb\u65b9\u4f53.015",
			"primitives":[
				{
					"attributes":{
						"POSITION":4,
						"NORMAL":5,
						"TEXCOORD_0":6
					},
					"indices":7
				}
			]
		},
		{
			"name":"\u7acb\u65b9\u4f53.016",
			"primitives":[
				{
					"attributes":{
						"POSITION":8,
						"NORMAL":9,
						"TEXCOORD_0":10
					},
					"indices":11
				}
			]
		},
		{
			"name":"\u7acb\u65b9\u4f53.008",
			"primitives":[
				{
					"attributes":{
						"POSITION":12,
						"NORMAL":13,
						"TEXCOORD_0":14
					},
					"indices":15
				}
			]
		},
		{
			"name":"\u7acb\u65b9\u4f53.004",
			"primitives":[
				{
					"attributes":{
						"POSITION":16,
						"NORMAL":17,
						"TEXCOORD_0":18
					},
					"indices":15
				}
			]
		},
		{
			"name":"\u7acb\u65b9\u4f53.010",
			"primitives":[
				{
					"attributes":{
						"POSITION":19,
						"NORMAL":20,
						"TEXCOORD_0":21
					},
					"indices":22
				}
			]
		},
		{
			"name":"wall",
			"primitives":[
				{
					"attributes":{
						"POSITION":23,
						"NORMAL":24,
						"TEXCOORD_0":25
					},
					"indices":26
				}
			]
		},
		{
			"name":"\u5e73\u9762",
			"primitives":[
				{
					"attributes":{
						"POSITION":27,
						"NORMAL":28,
						"TEXCOORD_0":29
					},
					"indices":30
				}
			]
		},
		{
			"name":"\u7acb\u65b9\u4f53.001",
			"primitives":[
				{
					"attributes":{
						"POSITION":31,
						"NORMAL":32,
						"TEXCOORD_0":33
					},
					"indices":34
				}
			]
		},
		{
			"name":"\u7acb\u65b9\u4f53.002",
			"primitives":[
				{
					"attributes":{
						"POSITION":35,
						"NORMAL":36,
						"TEXCOORD_0":37
					},
					"indices":38
				}
			]
		},
		{
			"name":"\u7acb\u65b9\u4f53.003",
			"primitives":[
				{
					"attributes":{
						"POSITION":39,
						"NORMAL":40,
						"TEXCOORD_0":41
					},
					"indices":42
				}
			]
		},
		{
			"name":"wall.004",
			"primitives":[
				{
					"attributes":{
						"POSITION":43,
						"NORMAL":44,
						"TEXCOORD_0":45
					},
					"indices":46
				}
			]
		},
		{
			"name":"wall.005",
			"primitives":[
				{
					"attributes":{
						"POSITION":47,
						"NORMAL":48,
						"TEXCOORD_0":49
					},
					"indices":50
				}
			]
		},
		{
			"name":"\u7acb\u65b9\u4f53.019",
			"primitives":[
				{
					"attributes":{
						"POSITION":51,
						"NORMAL":52,
						"TEXCOORD_0":53
					},
					"indices":54
				}
			]
		},
		{
			"name":"\u7acb\u65b9\u4f53.005",
			"primitives":[
				{
					"attributes":{
						"POSITION":55,
						"NORMAL":56,
						"TEXCOORD_0":57
					},
					"indices":54
				}
			]
		}
	],
	"accessors":[
		{
			"bufferView":0,
			"componentType":5126,
			"count":72,
			"max":[
				0.7250000238418579,
				0.0949999988079071,
				0.12000000476837158
			],
			"min":[
				-0.22499999403953552,
				-0.06499999761581421,
				-0.06499999761581421
			],
			"type":"VEC3"
		},
		{
			"bufferView":1,
			"componentType":5126,
			"count":72,
			"type":"VEC3"
		},
		{
			"bufferView":2,
			"componentType":5126,
			"count":72,
			"type":"VEC2"
		},
		{
			"bufferView":3,
			"componentType":5123,
			"count":108,
			"type":"SCALAR"
		},
		{
			"bufferView":4,
			"componentType":5126,
			"count":432,
			"max":[
				0.3499999940395355,
				0.34999996423721313,
				0.014999999664723873
			],
			"min":[
				-0.3499999940395355,
				-0.34999996423721313,
				-0.12546125054359436
			],
			"type":"VEC3"
		},
		{
			"bufferView":5,
			"componentType":5126,
			"count":432,
			"type":"VEC3"
		},
		{
			"bufferView":6,
			"componentType":5126,
			"count":432,
			"type":"VEC2"
		},
		{
			"bufferView":7,
			"componentType":5123,
			"count":828,
			"type":"SCALAR"
		},
		{
			"bufferView":8,
			"componentType":5126,
			"count":3768,
			"max":[
				0.17499999701976776,
				0.17499999701976776,
				0.0925000011920929
			],
			"min":[
				-0.17499999701976776,
				-0.17499999701976776,
				-0.0925000011920929
			],
			"type":"VEC3"
		},
		{
			"bufferView":9,
			"componentType":5126,
			"count":3768,
			"type":"VEC3"
		},
		{
			"bufferView":10,
			"componentType":5126,
			"count":3768,
			"type":"VEC2"
		},
		{
			"bufferView":11,
			"componentType":5123,
			"count":9732,
			"type":"SCALAR"
		},
		{
			"bufferView":12,
			"componentType":5126,
			"count":2318,
			"max":[
				0.2750000059604645,
				0.320000022649765,
				1.600000023841858
			],
			"min":[
				-0.32500001788139343,
				-0.30000001192092896,
				-1.600000023841858
			],
			"type":"VEC3"
		},
		{
			"bufferView":13,
			"componentType":5126,
			"count":2318,
			"type":"VEC3"
		},
		{
			"bufferView":14,
			"componentType":5126,
			"count":2318,
			"type":"VEC2"
		},
		{
			"bufferView":15,
			"componentType":5123,
			"count":3924,
			"type":"SCALAR"
		},
		{
			"bufferView":16,
			"componentType":5126,
			"count":2318,
			"max":[
				0.2750000059604645,
				0.320000022649765,
				1.600000023841858
			],
			"min":[
				-0.32500001788139343,
				-0.30000001192092896,
				-1.600000023841858
			],
			"type":"VEC3"
		},
		{
			"bufferView":17,
			"componentType":5126,
			"count":2318,
			"type":"VEC3"
		},
		{
			"bufferView":18,
			"componentType":5126,
			"count":2318,
			"type":"VEC2"
		},
		{
			"bufferView":19,
			"componentType":5126,
			"count":1272,
			"max":[
				0.30000001192092896,
				1.375,
				1
			],
			"min":[
				-0.320000022649765,
				-1.375,
				-1
			],
			"type":"VEC3"
		},
		{
			"bufferView":20,
			"componentType":5126,
			"count":1272,
			"type":"VEC3"
		},
		{
			"bufferView":21,
			"componentType":5126,
			"count":1272,
			"type":"VEC2"
		},
		{
			"bufferView":22,
			"componentType":5123,
			"count":2292,
			"type":"SCALAR"
		},
		{
			"bufferView":23,
			"componentType":5126,
			"count":46,
			"max":[
				3,
				4.039083957672119,
				7
			],
			"min":[
				-3,
				0,
				-3
			],
			"type":"VEC3"
		},
		{
			"bufferView":24,
			"componentType":5126,
			"count":46,
			"type":"VEC3"
		},
		{
			"bufferView":25,
			"componentType":5126,
			"count":46,
			"type":"VEC2"
		},
		{
			"bufferView":26,
			"componentType":5123,
			"count":78,
			"type":"SCALAR"
		},
		{
			"bufferView":27,
			"componentType":5126,
			"count":48,
			"max":[
				1,
				0,
				0.5
			],
			"min":[
				-1,
				-0.9000000357627869,
				-0.5
			],
			"type":"VEC3"
		},
		{
			"bufferView":28,
			"componentType":5126,
			"count":48,
			"type":"VEC3"
		},
		{
			"bufferView":29,
			"componentType":5126,
			"count":48,
			"type":"VEC2"
		},
		{
			"bufferView":30,
			"componentType":5123,
			"count":84,
			"type":"SCALAR"
		},
		{
			"bufferView":31,
			"componentType":5126,
			"count":72,
			"max":[
				1.5,
				0.75,
				0.24696573615074158
			],
			"min":[
				-1.5,
				-0.75,
				-0.05000000074505806
			],
			"type":"VEC3"
		},
		{
			"bufferView":32,
			"componentType":5126,
			"count":72,
			"type":"VEC3"
		},
		{
			"bufferView":33,
			"componentType":5126,
			"count":72,
			"type":"VEC2"
		},
		{
			"bufferView":34,
			"componentType":5123,
			"count":120,
			"type":"SCALAR"
		},
		{
			"bufferView":35,
			"componentType":5126,
			"count":48,
			"max":[
				0.6000000238418579,
				0.6000000238418579,
				0.05000000074505806
			],
			"min":[
				-0.6000000238418579,
				-0.6000000238418579,
				-0.05000000074505806
			],
			"type":"VEC3"
		},
		{
			"bufferView":36,
			"componentType":5126,
			"count":48,
			"type":"VEC3"
		},
		{
			"bufferView":37,
			"componentType":5126,
			"count":48,
			"type":"VEC2"
		},
		{
			"bufferView":38,
			"componentType":5123,
			"count":84,
			"type":"SCALAR"
		},
		{
			"bufferView":39,
			"componentType":5126,
			"count":24,
			"max":[
				1,
				1,
				1
			],
			"min":[
				-1,
				-1,
				-1
			],
			"type":"VEC3"
		},
		{
			"bufferView":40,
			"componentType":5126,
			"count":24,
			"type":"VEC3"
		},
		{
			"bufferView":41,
			"componentType":5126,
			"count":24,
			"type":"VEC2"
		},
		{
			"bufferView":42,
			"componentType":5123,
			"count":36,
			"type":"SCALAR"
		},
		{
			"bufferView":43,
			"componentType":5126,
			"count":18576,
			"max":[
				2.799999952316284,
				1.2790813446044922,
				6.989999771118164
			],
			"min":[
				-2.989999771118164,
				0.2600000500679016,
				-2.799999952316284
			],
			"type":"VEC3"
		},
		{
			"bufferView":44,
			"componentType":5126,
			"count":18576,
			"type":"VEC3"
		},
		{
			"bufferView":45,
			"componentType":5126,
			"count":18576,
			"type":"VEC2"
		},
		{
			"bufferView":46,
			"componentType":5123,
			"count":27864,
			"type":"SCALAR"
		},
		{
			"bufferView":47,
			"componentType":5126,
			"count":27556,
			"max":[
				2.794999837875366,
				0.2500000596046448,
				6.994999885559082
			],
			"min":[
				-2.994999885559082,
				0.20000000298023224,
				-2.794999837875366
			],
			"type":"VEC3"
		},
		{
			"bufferView":48,
			"componentType":5126,
			"count":27556,
			"type":"VEC3"
		},
		{
			"bufferView":49,
			"componentType":5126,
			"count":27556,
			"type":"VEC2"
		},
		{
			"bufferView":50,
			"componentType":5123,
			"count":43128,
			"type":"SCALAR"
		},
		{
			"bufferView":51,
			"componentType":5126,
			"count":96,
			"max":[
				0.10000000149011612,
				1.9596956968307495,
				1
			],
			"min":[
				-0.10000000149011612,
				-0.05000000074505806,
				-1
			],
			"type":"VEC3"
		},
		{
			"bufferView":52,
			"componentType":5126,
			"count":96,
			"type":"VEC3"
		},
		{
			"bufferView":53,
			"componentType":5126,
			"count":96,
			"type":"VEC2"
		},
		{
			"bufferView":54,
			"componentType":5123,
			"count":156,
			"type":"SCALAR"
		},
		{
			"bufferView":55,
			"componentType":5126,
			"count":96,
			"max":[
				0.10000000149011612,
				1.9596956968307495,
				1
			],
			"min":[
				-0.10000000149011612,
				-0.05000000074505806,
				-1
			],
			"type":"VEC3"
		},
		{
			"bufferView":56,
			"componentType":5126,
			"count":96,
			"type":"VEC3"
		},
		{
			"bufferView":57,
			"componentType":5126,
			"count":96,
			"type":"VEC2"
		}
	],
	"bufferViews":[
		{
			"buffer":0,
			"byteLength":864,
			"byteOffset":0,
			"target":34962
		},
		{
			"buffer":0,
			"byteLength":864,
			"byteOffset":864,
			"target":34962
		},
		{
			"buffer":0,
			"byteLength":576,
			"byteOffset":1728,
			"target":34962
		},
		{
			"buffer":0,
			"byteLength":216,
			"byteOffset":2304,
			"target":34963
		},
		{
			"buffer":0,
			"byteLength":5184,
			"byteOffset":2520,
			"target":34962
		},
		{
			"buffer":0,
			"byteLength":5184,
			"byteOffset":7704,
			"target":34962
		},
		{
			"buffer":0,
			"byteLength":3456,
			"byteOffset":12888,
			"target":34962
		},
		{
			"buffer":0,
			"byteLength":1656,
			"byteOffset":16344,
			"target":34963
		},
		{
			"buffer":0,
			"byteLength":45216,
			"byteOffset":18000,
			"target":34962
		},
		{
			"buffer":0,
			"byteLength":45216,
			"byteOffset":63216,
			"target":34962
		},
		{
			"buffer":0,
			"byteLength":30144,
			"byteOffset":108432,
			"target":34962
		},
		{
			"buffer":0,
			"byteLength":19464,
			"byteOffset":138576,
			"target":34963
		},
		{
			"buffer":0,
			"byteLength":27816,
			"byteOffset":158040,
			"target":34962
		},
		{
			"buffer":0,
			"byteLength":27816,
			"byteOffset":185856,
			"target":34962
		},
		{
			"buffer":0,
			"byteLength":18544,
			"byteOffset":213672,
			"target":34962
		},
		{
			"buffer":0,
			"byteLength":7848,
			"byteOffset":232216,
			"target":34963
		},
		{
			"buffer":0,
			"byteLength":27816,
			"byteOffset":240064,
			"target":34962
		},
		{
			"buffer":0,
			"byteLength":27816,
			"byteOffset":267880,
			"target":34962
		},
		{
			"buffer":0,
			"byteLength":18544,
			"byteOffset":295696,
			"target":34962
		},
		{
			"buffer":0,
			"byteLength":15264,
			"byteOffset":314240,
			"target":34962
		},
		{
			"buffer":0,
			"byteLength":15264,
			"byteOffset":329504,
			"target":34962
		},
		{
			"buffer":0,
			"byteLength":10176,
			"byteOffset":344768,
			"target":34962
		},
		{
			"buffer":0,
			"byteLength":4584,
			"byteOffset":354944,
			"target":34963
		},
		{
			"buffer":0,
			"byteLength":552,
			"byteOffset":359528,
			"target":34962
		},
		{
			"buffer":0,
			"byteLength":552,
			"byteOffset":360080,
			"target":34962
		},
		{
			"buffer":0,
			"byteLength":368,
			"byteOffset":360632,
			"target":34962
		},
		{
			"buffer":0,
			"byteLength":156,
			"byteOffset":361000,
			"target":34963
		},
		{
			"buffer":0,
			"byteLength":576,
			"byteOffset":361156,
			"target":34962
		},
		{
			"buffer":0,
			"byteLength":576,
			"byteOffset":361732,
			"target":34962
		},
		{
			"buffer":0,
			"byteLength":384,
			"byteOffset":362308,
			"target":34962
		},
		{
			"buffer":0,
			"byteLength":168,
			"byteOffset":362692,
			"target":34963
		},
		{
			"buffer":0,
			"byteLength":864,
			"byteOffset":362860,
			"target":34962
		},
		{
			"buffer":0,
			"byteLength":864,
			"byteOffset":363724,
			"target":34962
		},
		{
			"buffer":0,
			"byteLength":576,
			"byteOffset":364588,
			"target":34962
		},
		{
			"buffer":0,
			"byteLength":240,
			"byteOffset":365164,
			"target":34963
		},
		{
			"buffer":0,
			"byteLength":576,
			"byteOffset":365404,
			"target":34962
		},
		{
			"buffer":0,
			"byteLength":576,
			"byteOffset":365980,
			"target":34962
		},
		{
			"buffer":0,
			"byteLength":384,
			"byteOffset":366556,
			"target":34962
		},
		{
			"buffer":0,
			"byteLength":168,
			"byteOffset":366940,
			"target":34963
		},
		{
			"buffer":0,
			"byteLength":288,
			"byteOffset":367108,
			"target":34962
		},
		{
			"buffer":0,
			"byteLength":288,
			"byteOffset":367396,
			"target":34962
		},
		{
			"buffer":0,
			"byteLength":192,
			"byteOffset":367684,
			"target":34962
		},
		{
			"buffer":0,
			"byteLength":72,
			"byteOffset":367876,
			"target":34963
		},
		{
			"buffer":0,
			"byteLength":222912,
			"byteOffset":367948,
			"target":34962
		},
		{
			"buffer":0,
			"byteLength":222912,
			"byteOffset":590860,
			"target":34962
		},
		{
			"buffer":0,
			"byteLength":148608,
			"byteOffset":813772,
			"target":34962
		},
		{
			"buffer":0,
			"byteLength":55728,
			"byteOffset":962380,
			"target":34963
		},
		{
			"buffer":0,
			"byteLength":330672,
			"byteOffset":1018108,
			"target":34962
		},
		{
			"buffer":0,
			"byteLength":330672,
			"byteOffset":1348780,
			"target":34962
		},
		{
			"buffer":0,
			"byteLength":220448,
			"byteOffset":1679452,
			"target":34962
		},
		{
			"buffer":0,
			"byteLength":86256,
			"byteOffset":1899900,
			"target":34963
		},
		{
			"buffer":0,
			"byteLength":1152,
			"byteOffset":1986156,
			"target":34962
		},
		{
			"buffer":0,
			"byteLength":1152,
			"byteOffset":1987308,
			"target":34962
		},
		{
			"buffer":0,
			"byteLength":768,
			"byteOffset":1988460,
			"target":34962
		},
		{
			"buffer":0,
			"byteLength":312,
			"byteOffset":1989228,
			"target":34963
		},
		{
			"buffer":0,
			"byteLength":1152,
			"byteOffset":1989540,
			"target":34962
		},
		{
			"buffer":0,
			"byteLength":1152,
			"byteOffset":1990692,
			"target":34962
		},
		{
			"buffer":0,
			"byteLength":768,
			"byteOffset":1991844,
			"target":34962
		}
	],
	"buffers":[
		{
			"byteLength":1992612,
			"uri":"classroomMiddle.bin"
		}
	]
}
