{
	"asset":{
		"generator":"Khronos glTF Blender I/O v4.5.47",
		"version":"2.0"
	},
	"scene":0,
	"scenes":[
		{
			"name":"Scene",
			"nodes":[
				0,
				1,
				2,
				3,
				4,
				5,
				6,
				7,
				8,
				9,
				10,
				11,
				12,
				13
			]
		}
	],
	"nodes":[
		{
			"mesh":0,
			"name":"\u6559\u5ba4\u4e3b\u4f53",
			"translation":[
				-10.102205276489258,
				0,
				0
			]
		},
		{
			"mesh":1,
			"name":"\u5929\u82b1\u677f",
			"rotation":[
				1,
				0,
				0,
				0
			],
			"scale":[
				-1,
				-1,
				-1
			],
			"translation":[
				-10.102205276489258,
				0,
				0
			]
		},
		{
			"mesh":2,
			"name":"\u9636\u68af",
			"rotation":[
				1,
				0,
				0,
				0
			],
			"scale":[
				-1,
				-1,
				-1
			],
			"translation":[
				-10.102205276489258,
				0.009999990463256836,
				0
			]
		},
		{
			"mesh":3,
			"name":"\u524d\u53f0\u5730\u677f",
			"translation":[
				-10.102205276489258,
				0.10000000149011612,
				0
			]
		},
		{
			"mesh":4,
			"name":"\u8bb2\u53f0\u5730\u677f",
			"rotation":[
				1,
				0,
				0,
				0
			],
			"scale":[
				-1,
				-1,
				-1
			],
			"translation":[
				-8.092063903808594,
				0.049999967217445374,
				-0.00023733051784802228
			]
		},
		{
			"mesh":5,
			"name":"\u9ed1\u677f",
			"rotation":[
				1,
				0,
				0,
				0
			],
			"scale":[
				-1,
				-1,
				-1
			],
			"translation":[
				-9.902206420898438,
				2.095238208770752,
				0
			]
		},
		{
			"mesh":6,
			"name":"\u9ed1\u677f.001",
			"rotation":[
				1,
				0,
				0,
				0
			],
			"scale":[
				-1,
				-1,
				-1
			],
			"translation":[
				-10.042206764221191,
				4.595238208770752,
				-4.899999618530273
			]
		},
		{
			"mesh":7,
			"name":"\u9ed1\u677f.002",
			"rotation":[
				1,
				0,
				0,
				0
			],
			"scale":[
				-1,
				-1,
				-1
			],
			"translation":[
				-10.062206268310547,
				2.095238208770752,
				4.90000057220459
			]
		},
		{
			"mesh":8,
			"name":"\u9ed1\u677f.003",
			"rotation":[
				1,
				0,
				0,
				0
			],
			"scale":[
				-1,
				-1,
				-1
			],
			"translation":[
				-10.042206764221191,
				4.795238494873047,
				0
			]
		},
		{
			"mesh":9,
			"name":"\u9ed1\u677f.004",
			"rotation":[
				1,
				0,
				0,
				0
			],
			"scale":[
				-1,
				-1,
				-1
			],
			"translation":[
				-9.91220474243164,
				3.895238161087036,
				4.90000057220459
			]
		},
		{
			"mesh":10,
			"name":"\u9ed1\u677f.005",
			"rotation":[
				1,
				0,
				0,
				0
			],
			"scale":[
				-1,
				-1,
				-1
			],
			"translation":[
				-9.902206420898438,
				3.1852383613586426,
				-4.899999618530273
			]
		},
		{
			"mesh":11,
			"name":"\u9ed1\u677f\u6846",
			"rotation":[
				1,
				0,
				0,
				0
			],
			"scale":[
				-1,
				-0.9523810148239136,
				-1
			],
			"translation":[
				-7.902205467224121,
				0.5,
				0
			]
		},
		{
			"mesh":12,
			"name":"\u95e8",
			"rotation":[
				1,
				0,
				0,
				0
			],
			"scale":[
				-1,
				-1,
				-1
			],
			"translation":[
				-11.9522066116333,
				2.095238208770752,
				0
			]
		},
		{
			"mesh":13,
			"name":"\u684c\u6905",
			"translation":[
				-10.102205276489258,
				0,
				0
			]
		}
	],
	"meshes":[
		{
			"name":"Cube",
			"primitives":[
				{
					"attributes":{
						"POSITION":0,
						"NORMAL":1,
						"TEXCOORD_0":2
					},
					"indices":3
				}
			]
		},
		{
			"name":"Cube.001",
			"primitives":[
				{
					"attributes":{
						"POSITION":4,
						"NORMAL":5,
						"TEXCOORD_0":6
					},
					"indices":7
				}
			]
		},
		{
			"name":"Cube.002",
			"primitives":[
				{
					"attributes":{
						"POSITION":8,
						"NORMAL":9,
						"TEXCOORD_0":10
					},
					"indices":11
				}
			]
		},
		{
			"name":"Cube.009",
			"primitives":[
				{
					"attributes":{
						"POSITION":12,
						"NORMAL":13,
						"TEXCOORD_0":14
					},
					"indices":15
				}
			]
		},
		{
			"name":"Cube.003",
			"primitives":[
				{
					"attributes":{
						"POSITION":16,
						"NORMAL":17,
						"TEXCOORD_0":18
					},
					"indices":19
				}
			]
		},
		{
			"name":"\u5e73\u9762",
			"primitives":[
				{
					"attributes":{
						"POSITION":20,
						"NORMAL":21,
						"TEXCOORD_0":22
					},
					"indices":23
				}
			]
		},
		{
			"name":"\u5e73\u9762.003",
			"primitives":[
				{
					"attributes":{
						"POSITION":24,
						"NORMAL":25,
						"TEXCOORD_0":26
					},
					"indices":27
				}
			]
		},
		{
			"name":"\u5e73\u9762.004",
			"primitives":[
				{
					"attributes":{
						"POSITION":28,
						"NORMAL":29,
						"TEXCOORD_0":30
					},
					"indices":27
				}
			]
		},
		{
			"name":"\u5e73\u9762.005",
			"primitives":[
				{
					"attributes":{
						"POSITION":31,
						"NORMAL":32,
						"TEXCOORD_0":33
					},
					"indices":27
				}
			]
		},
		{
			"name":"\u5e73\u9762.006",
			"primitives":[
				{
					"attributes":{
						"POSITION":34,
						"NORMAL":35,
						"TEXCOORD_0":36
					},
					"indices":27
				}
			]
		},
		{
			"name":"\u5e73\u9762.007",
			"primitives":[
				{
					"attributes":{
						"POSITION":37,
						"NORMAL":38,
						"TEXCOORD_0":39
					},
					"indices":27
				}
			]
		},
		{
			"name":"Cube.004",
			"primitives":[
				{
					"attributes":{
						"POSITION":40,
						"NORMAL":41,
						"TEXCOORD_0":42
					},
					"indices":43
				}
			]
		},
		{
			"name":"Cube.008",
			"primitives":[
				{
					"attributes":{
						"POSITION":44,
						"NORMAL":45,
						"TEXCOORD_0":46
					},
					"indices":47
				}
			]
		},
		{
			"name":"\u8d1d\u585e\u5c14\u66f2\u7ebf.002",
			"primitives":[
				{
					"attributes":{
						"POSITION":48,
						"NORMAL":49,
						"TEXCOORD_0":50
					},
					"indices":51
				}
			]
		}
	],
	"accessors":[
		{
			"bufferView":0,
			"componentType":5126,
			"count":492,
			"max":[
				29.90054702758789,
				10,
				28.190780639648438
			],
			"min":[
				-0.21999993920326233,
				0,
				-28.190778732299805
			],
			"type":"VEC3"
		},
		{
			"bufferView":1,
			"componentType":5126,
			"count":492,
			"type":"VEC3"
		},
		{
			"bufferView":2,
			"componentType":5126,
			"count":492,
			"type":"VEC2"
		},
		{
			"bufferView":3,
			"componentType":5123,
			"count":930,
			"type":"SCALAR"
		},
		{
			"bufferView":4,
			"componentType":5126,
			"count":3247,
			"max":[
				-0.20000004768371582,
				10,
				27.918472290039062
			],
			"min":[
				-29.700546264648438,
				6.700000286102295,
				-27.91847038269043
			],
			"type":"VEC3"
		},
		{
			"bufferView":5,
			"componentType":5126,
			"count":3247,
			"type":"VEC3"
		},
		{
			"bufferView":6,
			"componentType":5126,
			"count":3247,
			"type":"VEC2"
		},
		{
			"bufferView":7,
			"componentType":5123,
			"count":5184,
			"type":"SCALAR"
		},
		{
			"bufferView":8,
			"componentType":5126,
			"count":3000,
			"max":[
				-3.6202006340026855,
				5.300368785858154,
				27.918472290039062
			],
			"min":[
				-29.700546264648438,
				-0.009999999776482582,
				-27.91847038269043
			],
			"type":"VEC3"
		},
		{
			"bufferView":9,
			"componentType":5126,
			"count":3000,
			"type":"VEC3"
		},
		{
			"bufferView":10,
			"componentType":5126,
			"count":3000,
			"type":"VEC2"
		},
		{
			"bufferView":11,
			"componentType":5123,
			"count":4500,
			"type":"SCALAR"
		},
		{
			"bufferView":12,
			"componentType":5126,
			"count":16,
			"max":[
				9.965845108032227,
				0.010000769048929214,
				9.361661911010742
			],
			"min":[
				3.6202006340026855,
				-8.184224498108961e-07,
				-9.361661911010742
			],
			"type":"VEC3"
		},
		{
			"bufferView":13,
			"componentType":5126,
			"count":16,
			"type":"VEC3"
		},
		{
			"bufferView":14,
			"componentType":5126,
			"count":16,
			"type":"VEC2"
		},
		{
			"bufferView":15,
			"componentType":5123,
			"count":42,
			"type":"SCALAR"
		},
		{
			"bufferView":16,
			"componentType":5126,
			"count":4,
			"max":[
				1.6101417541503906,
				0,
				9.20012378692627
			],
			"min":[
				-1.6105570793151855,
				0,
				-9.1996488571167
			],
			"type":"VEC3"
		},
		{
			"bufferView":17,
			"componentType":5126,
			"count":4,
			"type":"VEC3"
		},
		{
			"bufferView":18,
			"componentType":5126,
			"count":4,
			"type":"VEC2"
		},
		{
			"bufferView":19,
			"componentType":5123,
			"count":6,
			"type":"SCALAR"
		},
		{
			"bufferView":20,
			"componentType":5126,
			"count":272,
			"max":[
				4.3128572713158064e-08,
				1.5,
				2.3499999046325684
			],
			"min":[
				-0.14000004529953003,
				-1.5,
				-2.3499999046325684
			],
			"type":"VEC3"
		},
		{
			"bufferView":21,
			"componentType":5126,
			"count":272,
			"type":"VEC3"
		},
		{
			"bufferView":22,
			"componentType":5126,
			"count":272,
			"type":"VEC2"
		},
		{
			"bufferView":23,
			"componentType":5123,
			"count":468,
			"type":"SCALAR"
		},
		{
			"bufferView":24,
			"componentType":5126,
			"count":272,
			"max":[
				4.3128572713158064e-08,
				1.5,
				2.3499999046325684
			],
			"min":[
				-0.14000004529953003,
				-1.5,
				-2.3499999046325684
			],
			"type":"VEC3"
		},
		{
			"bufferView":25,
			"componentType":5126,
			"count":272,
			"type":"VEC3"
		},
		{
			"bufferView":26,
			"componentType":5126,
			"count":272,
			"type":"VEC2"
		},
		{
			"bufferView":27,
			"componentType":5123,
			"count":468,
			"type":"SCALAR"
		},
		{
			"bufferView":28,
			"componentType":5126,
			"count":272,
			"max":[
				4.3128572713158064e-08,
				1.5,
				2.3499999046325684
			],
			"min":[
				-0.14000004529953003,
				-1.5,
				-2.3499999046325684
			],
			"type":"VEC3"
		},
		{
			"bufferView":29,
			"componentType":5126,
			"count":272,
			"type":"VEC3"
		},
		{
			"bufferView":30,
			"componentType":5126,
			"count":272,
			"type":"VEC2"
		},
		{
			"bufferView":31,
			"componentType":5126,
			"count":272,
			"max":[
				4.3128572713158064e-08,
				1.5,
				2.3499999046325684
			],
			"min":[
				-0.14000004529953003,
				-1.5,
				-2.3499999046325684
			],
			"type":"VEC3"
		},
		{
			"bufferView":32,
			"componentType":5126,
			"count":272,
			"type":"VEC3"
		},
		{
			"bufferView":33,
			"componentType":5126,
			"count":272,
			"type":"VEC2"
		},
		{
			"bufferView":34,
			"componentType":5126,
			"count":272,
			"max":[
				4.3128572713158064e-08,
				1.5,
				2.3499999046325684
			],
			"min":[
				-0.14000004529953003,
				-1.5,
				-2.3499999046325684
			],
			"type":"VEC3"
		},
		{
			"bufferView":35,
			"componentType":5126,
			"count":272,
			"type":"VEC3"
		},
		{
			"bufferView":36,
			"componentType":5126,
			"count":272,
			"type":"VEC2"
		},
		{
			"bufferView":37,
			"componentType":5126,
			"count":272,
			"max":[
				4.3128572713158064e-08,
				1.5,
				2.3499999046325684
			],
			"min":[
				-0.14000004529953003,
				-1.5,
				-2.3499999046325684
			],
			"type":"VEC3"
		},
		{
			"bufferView":38,
			"componentType":5126,
			"count":272,
			"type":"VEC3"
		},
		{
			"bufferView":39,
			"componentType":5126,
			"count":272,
			"type":"VEC2"
		},
		{
			"bufferView":40,
			"componentType":5126,
			"count":1012,
			"max":[
				2.200000047683716,
				6.299999713897705,
				7.3599090576171875
			],
			"min":[
				1.7999999523162842,
				0,
				-7.3599090576171875
			],
			"type":"VEC3"
		},
		{
			"bufferView":41,
			"componentType":5126,
			"count":1012,
			"type":"VEC3"
		},
		{
			"bufferView":42,
			"componentType":5126,
			"count":1012,
			"type":"VEC2"
		},
		{
			"bufferView":43,
			"componentType":5123,
			"count":1812,
			"type":"SCALAR"
		},
		{
			"bufferView":44,
			"componentType":5126,
			"count":1544,
			"max":[
				-2.8000094890594482,
				0.8047618865966797,
				9.479275703430176
			],
			"min":[
				-4.790085792541504,
				-2.085238218307495,
				-9.479275703430176
			],
			"type":"VEC3"
		},
		{
			"bufferView":45,
			"componentType":5126,
			"count":1544,
			"type":"VEC3"
		},
		{
			"bufferView":46,
			"componentType":5126,
			"count":1544,
			"type":"VEC2"
		},
		{
			"bufferView":47,
			"componentType":5123,
			"count":2496,
			"type":"SCALAR"
		},
		{
			"bufferView":48,
			"componentType":5126,
			"count":5340,
			"max":[
				28.835357666015625,
				6.309865474700928,
				25.251285552978516
			],
			"min":[
				4.756052494049072,
				0.32668396830558777,
				-25.251285552978516
			],
			"type":"VEC3"
		},
		{
			"bufferView":49,
			"componentType":5126,
			"count":5340,
			"type":"VEC3"
		},
		{
			"bufferView":50,
			"componentType":5126,
			"count":5340,
			"type":"VEC2"
		},
		{
			"bufferView":51,
			"componentType":5123,
			"count":9360,
			"type":"SCALAR"
		}
	],
	"bufferViews":[
		{
			"buffer":0,
			"byteLength":5904,
			"byteOffset":0,
			"target":34962
		},
		{
			"buffer":0,
			"byteLength":5904,
			"byteOffset":5904,
			"target":34962
		},
		{
			"buffer":0,
			"byteLength":3936,
			"byteOffset":11808,
			"target":34962
		},
		{
			"buffer":0,
			"byteLength":1860,
			"byteOffset":15744,
			"target":34963
		},
		{
			"buffer":0,
			"byteLength":38964,
			"byteOffset":17604,
			"target":34962
		},
		{
			"buffer":0,
			"byteLength":38964,
			"byteOffset":56568,
			"target":34962
		},
		{
			"buffer":0,
			"byteLength":25976,
			"byteOffset":95532,
			"target":34962
		},
		{
			"buffer":0,
			"byteLength":10368,
			"byteOffset":121508,
			"target":34963
		},
		{
			"buffer":0,
			"byteLength":36000,
			"byteOffset":131876,
			"target":34962
		},
		{
			"buffer":0,
			"byteLength":36000,
			"byteOffset":167876,
			"target":34962
		},
		{
			"buffer":0,
			"byteLength":24000,
			"byteOffset":203876,
			"target":34962
		},
		{
			"buffer":0,
			"byteLength":9000,
			"byteOffset":227876,
			"target":34963
		},
		{
			"buffer":0,
			"byteLength":192,
			"byteOffset":236876,
			"target":34962
		},
		{
			"buffer":0,
			"byteLength":192,
			"byteOffset":237068,
			"target":34962
		},
		{
			"buffer":0,
			"byteLength":128,
			"byteOffset":237260,
			"target":34962
		},
		{
			"buffer":0,
			"byteLength":84,
			"byteOffset":237388,
			"target":34963
		},
		{
			"buffer":0,
			"byteLength":48,
			"byteOffset":237472,
			"target":34962
		},
		{
			"buffer":0,
			"byteLength":48,
			"byteOffset":237520,
			"target":34962
		},
		{
			"buffer":0,
			"byteLength":32,
			"byteOffset":237568,
			"target":34962
		},
		{
			"buffer":0,
			"byteLength":12,
			"byteOffset":237600,
			"target":34963
		},
		{
			"buffer":0,
			"byteLength":3264,
			"byteOffset":237612,
			"target":34962
		},
		{
			"buffer":0,
			"byteLength":3264,
			"byteOffset":240876,
			"target":34962
		},
		{
			"buffer":0,
			"byteLength":2176,
			"byteOffset":244140,
			"target":34962
		},
		{
			"buffer":0,
			"byteLength":936,
			"byteOffset":246316,
			"target":34963
		},
		{
			"buffer":0,
			"byteLength":3264,
			"byteOffset":247252,
			"target":34962
		},
		{
			"buffer":0,
			"byteLength":3264,
			"byteOffset":250516,
			"target":34962
		},
		{
			"buffer":0,
			"byteLength":2176,
			"byteOffset":253780,
			"target":34962
		},
		{
			"buffer":0,
			"byteLength":936,
			"byteOffset":255956,
			"target":34963
		},
		{
			"buffer":0,
			"byteLength":3264,
			"byteOffset":256892,
			"target":34962
		},
		{
			"buffer":0,
			"byteLength":3264,
			"byteOffset":260156,
			"target":34962
		},
		{
			"buffer":0,
			"byteLength":2176,
			"byteOffset":263420,
			"target":34962
		},
		{
			"buffer":0,
			"byteLength":3264,
			"byteOffset":265596,
			"target":34962
		},
		{
			"buffer":0,
			"byteLength":3264,
			"byteOffset":268860,
			"target":34962
		},
		{
			"buffer":0,
			"byteLength":2176,
			"byteOffset":272124,
			"target":34962
		},
		{
			"buffer":0,
			"byteLength":3264,
			"byteOffset":274300,
			"target":34962
		},
		{
			"buffer":0,
			"byteLength":3264,
			"byteOffset":277564,
			"target":34962
		},
		{
			"buffer":0,
			"byteLength":2176,
			"byteOffset":280828,
			"target":34962
		},
		{
			"buffer":0,
			"byteLength":3264,
			"byteOffset":283004,
			"target":34962
		},
		{
			"buffer":0,
			"byteLength":3264,
			"byteOffset":286268,
			"target":34962
		},
		{
			"buffer":0,
			"byteLength":2176,
			"byteOffset":289532,
			"target":34962
		},
		{
			"buffer":0,
			"byteLength":12144,
			"byteOffset":291708,
			"target":34962
		},
		{
			"buffer":0,
			"byteLength":12144,
			"byteOffset":303852,
			"target":34962
		},
		{
			"buffer":0,
			"byteLength":8096,
			"byteOffset":315996,
			"target":34962
		},
		{
			"buffer":0,
			"byteLength":3624,
			"byteOffset":324092,
			"target":34963
		},
		{
			"buffer":0,
			"byteLength":18528,
			"byteOffset":327716,
			"target":34962
		},
		{
			"buffer":0,
			"byteLength":18528,
			"byteOffset":346244,
			"target":34962
		},
		{
			"buffer":0,
			"byteLength":12352,
			"byteOffset":364772,
			"target":34962
		},
		{
			"buffer":0,
			"byteLength":4992,
			"byteOffset":377124,
			"target":34963
		},
		{
			"buffer":0,
			"byteLength":64080,
			"byteOffset":382116,
			"target":34962
		},
		{
			"buffer":0,
			"byteLength":64080,
			"byteOffset":446196,
			"target":34962
		},
		{
			"buffer":0,
			"byteLength":42720,
			"byteOffset":510276,
			"target":34962
		},
		{
			"buffer":0,
			"byteLength":18720,
			"byteOffset":552996,
			"target":34963
		}
	],
	"buffers":[
		{
			"byteLength":571716,
			"uri":"classroomUltra.bin"
		}
	]
}
