{
	"asset":{
		"generator":"Khronos glTF Blender I/O v4.5.47",
		"version":"2.0"
	},
	"scene":0,
	"scenes":[
		{
			"name":"Scene",
			"nodes":[
				0
			]
		}
	],
	"nodes":[
		{
			"mesh":0,
			"name":"\u684c\u6905.046"
		}
	],
	"meshes":[
		{
			"name":"\u7acb\u65b9\u4f53.011",
			"primitives":[
				{
					"attributes":{
						"POSITION":0,
						"NORMAL":1,
						"TEXCOORD_0":2
					},
					"indices":3
				}
			]
		}
	],
	"accessors":[
		{
			"bufferView":0,
			"componentType":5126,
			"count":81240,
			"max":[
				0.5,
				2.859949827194214,
				1.7999999523162842
			],
			"min":[
				-1.4218565225601196,
				0.8999481201171875,
				-1.7999999523162842
			],
			"type":"VEC3"
		},
		{
			"bufferView":1,
			"componentType":5126,
			"count":81240,
			"type":"VEC3"
		},
		{
			"bufferView":2,
			"componentType":5126,
			"count":81240,
			"type":"VEC2"
		},
		{
			"bufferView":3,
			"componentType":5125,
			"count":122268,
			"type":"SCALAR"
		}
	],
	"bufferViews":[
		{
			"buffer":0,
			"byteLength":974880,
			"byteOffset":0,
			"target":34962
		},
		{
			"buffer":0,
			"byteLength":974880,
			"byteOffset":974880,
			"target":34962
		},
		{
			"buffer":0,
			"byteLength":649920,
			"byteOffset":1949760,
			"target":34962
		},
		{
			"buffer":0,
			"byteLength":489072,
			"byteOffset":2599680,
			"target":34963
		}
	],
	"buffers":[
		{
			"byteLength":3088752,
			"uri":"deskChairPro.bin"
		}
	]
}
