{
	"asset":{
		"generator":"Khronos glTF Blender I/O v4.5.47",
		"version":"2.0"
	},
	"extensionsUsed":[
		"KHR_materials_specular",
		"KHR_materials_ior"
	],
	"scene":0,
	"scenes":[
		{
			"name":"Scene",
			"nodes":[
				18
			]
		}
	],
	"nodes":[
		{
			"mesh":0,
			"name":"bars_bars_Material_u1_v1_0"
		},
		{
			"children":[
				0
			],
			"name":"bars",
			"rotation":[
				-0.70710688829422,
				0,
				0,
				0.7071066498756409
			]
		},
		{
			"mesh":1,
			"name":"Box001_Unwrap Texture Checker Material_0"
		},
		{
			"children":[
				2
			],
			"name":"Box001",
			"rotation":[
				-0.7070685625076294,
				0.007347394246608019,
				0.007347394712269306,
				0.7070686221122742
			],
			"translation":[
				-0.82297682762146,
				-0.07497906684875488,
				0.4382628798484802
			]
		},
		{
			"mesh":2,
			"name":"default_SpartanDoor_Low_withTX_Material_t2_l0_u1_v1_0"
		},
		{
			"children":[
				4
			],
			"name":"Object_4",
			"translation":[
				2.448441743850708,
				3.0200881958007812,
				-1.893575668334961
			]
		},
		{
			"children":[
				5
			],
			"name":"default",
			"rotation":[
				-0.7146027684211731,
				0.025615407153964043,
				0.026203297078609467,
				0.6985700726509094
			],
			"translation":[
				-2.2852911949157715,
				2.101830005645752,
				3.3386223316192627
			]
		},
		{
			"mesh":3,
			"name":"Spartan_default_0"
		},
		{
			"mesh":4,
			"name":"Spartan_default_0.001"
		},
		{
			"mesh":5,
			"name":"Spartan_default_0.002"
		},
		{
			"mesh":6,
			"name":"Spartan_default_0.003"
		},
		{
			"mesh":7,
			"name":"Spartan_default_0.004"
		},
		{
			"mesh":8,
			"name":"Spartan_default_0.005"
		},
		{
			"children":[
				7,
				8,
				9,
				10,
				11,
				12
			],
			"name":"Spartan",
			"rotation":[
				-0.70710688829422,
				0,
				0,
				0.7071066498756409
			]
		},
		{
			"mesh":9,
			"name":"windows_WindowswithTextures_Material_t1_l1_u1_v1_0"
		},
		{
			"children":[
				14
			],
			"name":"windows",
			"rotation":[
				-0.70710688829422,
				0,
				0,
				0.7071066498756409
			]
		},
		{
			"children":[
				1,
				3,
				6,
				13,
				15
			],
			"name":"RootNode"
		},
		{
			"children":[
				16
			],
			"name":"eb21578c360a44518e7739de6e03e327.fbx",
			"rotation":[
				0.70710688829422,
				0,
				0,
				0.7071066498756409
			]
		},
		{
			"children":[
				17
			],
			"name":"Sketchfab_model",
			"rotation":[
				-0.70710688829422,
				0,
				0,
				0.7071066498756409
			]
		}
	],
	"materials":[
		{
			"doubleSided":true,
			"extensions":{
				"KHR_materials_specular":{
					"specularColorFactor":[
						0.0,
						0.0,
						0.0
					]
				},
				"KHR_materials_ior":{
					"ior":1000
				}
			},
			"name":"bars_Material_u1_v1",
			"pbrMetallicRoughness":{
				"metallicFactor":0,
				"roughnessFactor":0.9084268808364868
			}
		},
		{
			"doubleSided":true,
			"extensions":{
				"KHR_materials_specular":{
					"specularColorFactor":[
						0.0,
						0.0,
						0.0
					]
				},
				"KHR_materials_ior":{
					"ior":1000
				}
			},
			"name":"Unwrap_Texture_Checker_Material",
			"pbrMetallicRoughness":{
				"metallicFactor":0,
				"roughnessFactor":0.8929713368415833
			}
		},
		{
			"doubleSided":true,
			"extensions":{
				"KHR_materials_specular":{
					"specularColorFactor":[
						0.0,
						0.0,
						0.0
					]
				},
				"KHR_materials_ior":{
					"ior":1000
				}
			},
			"name":"SpartanDoor_Low_withTX_Material_t2_l0_u1_v1",
			"pbrMetallicRoughness":{
				"metallicFactor":0,
				"roughnessFactor":0.9084268808364868
			}
		},
		{
			"doubleSided":true,
			"extensions":{
				"KHR_materials_specular":{
					"specularColorFactor":[
						0.0,
						0.0,
						0.0
					]
				},
				"KHR_materials_ior":{
					"ior":1000
				}
			},
			"name":"default",
			"pbrMetallicRoughness":{
				"metallicFactor":0,
				"roughnessFactor":0.8929713368415833
			}
		},
		{
			"alphaMode":"BLEND",
			"extensions":{
				"KHR_materials_specular":{
					"specularColorFactor":[
						0.9878048896789551,
						0.9878048896789551,
						0.9878048896789551
					]
				},
				"KHR_materials_ior":{
					"ior":1000
				}
			},
			"name":"WindowswithTextures_Material_t1_l1_u1_v1",
			"pbrMetallicRoughness":{
				"baseColorFactor":[
					0.39024388790130615,
					0.39024388790130615,
					0.39024388790130615,
					0.1768292635679245
				],
				"metallicFactor":0,
				"roughnessFactor":0.16463415324687958
			}
		}
	],
	"meshes":[
		{
			"name":"bars_bars_Material_u1_v1_0",
			"primitives":[
				{
					"attributes":{
						"POSITION":0,
						"NORMAL":1,
						"TEXCOORD_0":2,
						"TEXCOORD_1":3
					},
					"indices":4,
					"material":0
				}
			]
		},
		{
			"name":"Box001_Unwrap Texture Checker Material_0",
			"primitives":[
				{
					"attributes":{
						"POSITION":5,
						"NORMAL":6,
						"TEXCOORD_0":7
					},
					"indices":8,
					"material":1
				}
			]
		},
		{
			"name":"default_SpartanDoor_Low_withTX_Material_t2_l0_u1_v1_0",
			"primitives":[
				{
					"attributes":{
						"POSITION":9,
						"NORMAL":10,
						"TEXCOORD_0":11,
						"TEXCOORD_1":12
					},
					"indices":13,
					"material":2
				}
			]
		},
		{
			"name":"Spartan_default_0",
			"primitives":[
				{
					"attributes":{
						"POSITION":14,
						"NORMAL":15,
						"TEXCOORD_0":16,
						"TEXCOORD_1":17
					},
					"indices":18,
					"material":3
				}
			]
		},
		{
			"name":"Spartan_default_0.001",
			"primitives":[
				{
					"attributes":{
						"POSITION":19,
						"NORMAL":20,
						"TEXCOORD_0":21,
						"TEXCOORD_1":22
					},
					"indices":23,
					"material":3
				}
			]
		},
		{
			"name":"Spartan_default_0.002",
			"primitives":[
				{
					"attributes":{
						"POSITION":24,
						"NORMAL":25,
						"TEXCOORD_0":26,
						"TEXCOORD_1":27
					},
					"indices":28,
					"material":3
				}
			]
		},
		{
			"name":"Spartan_default_0.003",
			"primitives":[
				{
					"attributes":{
						"POSITION":29,
						"NORMAL":30,
						"TEXCOORD_0":31,
						"TEXCOORD_1":32
					},
					"indices":33,
					"material":3
				}
			]
		},
		{
			"name":"Spartan_default_0.004",
			"primitives":[
				{
					"attributes":{
						"POSITION":34,
						"NORMAL":35,
						"TEXCOORD_0":36,
						"TEXCOORD_1":37
					},
					"indices":38,
					"material":3
				}
			]
		},
		{
			"name":"Spartan_default_0.005",
			"primitives":[
				{
					"attributes":{
						"POSITION":39,
						"NORMAL":40,
						"TEXCOORD_0":41,
						"TEXCOORD_1":42
					},
					"indices":43,
					"material":3
				}
			]
		},
		{
			"name":"windows_WindowswithTextures_Material_t1_l1_u1_v1_0",
			"primitives":[
				{
					"attributes":{
						"POSITION":44,
						"NORMAL":45,
						"TEXCOORD_0":46
					},
					"indices":47,
					"material":4
				}
			]
		}
	],
	"accessors":[
		{
			"bufferView":0,
			"componentType":5126,
			"count":1851,
			"max":[
				5.237493991851807,
				1.3974846601486206,
				7.647541522979736
			],
			"min":[
				2.670031785964966,
				-1.49929678440094,
				7.287418842315674
			],
			"type":"VEC3"
		},
		{
			"bufferView":1,
			"componentType":5126,
			"count":1851,
			"type":"VEC3"
		},
		{
			"bufferView":2,
			"componentType":5126,
			"count":1851,
			"type":"VEC2"
		},
		{
			"bufferView":3,
			"componentType":5126,
			"count":1851,
			"type":"VEC2"
		},
		{
			"bufferView":4,
			"componentType":5123,
			"count":3054,
			"type":"SCALAR"
		},
		{
			"bufferView":5,
			"componentType":5126,
			"count":24,
			"max":[
				12.029560089111328,
				3.990596055984497,
				0.2799999713897705
			],
			"min":[
				-12.029560089111328,
				-3.990596055984497,
				0
			],
			"type":"VEC3"
		},
		{
			"bufferView":6,
			"componentType":5126,
			"count":24,
			"type":"VEC3"
		},
		{
			"bufferView":7,
			"componentType":5126,
			"count":24,
			"type":"VEC2"
		},
		{
			"bufferView":8,
			"componentType":5123,
			"count":36,
			"type":"SCALAR"
		},
		{
			"bufferView":9,
			"componentType":5126,
			"count":7291,
			"max":[
				-1.3166685104370117,
				-2.614360809326172,
				2.8970961570739746
			],
			"min":[
				-3.5802152156829834,
				-3.4258155822753906,
				0.8900550603866577
			],
			"type":"VEC3"
		},
		{
			"bufferView":10,
			"componentType":5126,
			"count":7291,
			"type":"VEC3"
		},
		{
			"bufferView":11,
			"componentType":5126,
			"count":7291,
			"type":"VEC2"
		},
		{
			"bufferView":12,
			"componentType":5126,
			"count":7291,
			"type":"VEC2"
		},
		{
			"bufferView":13,
			"componentType":5123,
			"count":29976,
			"type":"SCALAR"
		},
		{
			"bufferView":14,
			"componentType":5126,
			"count":65770,
			"max":[
				10.484399795532227,
				3.344599962234497,
				8.50160026550293
			],
			"min":[
				-12.405200004577637,
				-4.281199932098389,
				0.022299999371170998
			],
			"type":"VEC3"
		},
		{
			"bufferView":15,
			"componentType":5126,
			"count":65770,
			"type":"VEC3"
		},
		{
			"bufferView":16,
			"componentType":5126,
			"count":65770,
			"type":"VEC2"
		},
		{
			"bufferView":17,
			"componentType":5126,
			"count":65770,
			"type":"VEC2"
		},
		{
			"bufferView":18,
			"componentType":5125,
			"count":269073,
			"type":"SCALAR"
		},
		{
			"bufferView":19,
			"componentType":5126,
			"count":65728,
			"max":[
				10.550800323486328,
				3.336899995803833,
				9.220999717712402
			],
			"min":[
				-12.405200004577637,
				-4.222400188446045,
				0.03009999915957451
			],
			"type":"VEC3"
		},
		{
			"bufferView":20,
			"componentType":5126,
			"count":65728,
			"type":"VEC3"
		},
		{
			"bufferView":21,
			"componentType":5126,
			"count":65728,
			"type":"VEC2"
		},
		{
			"bufferView":22,
			"componentType":5126,
			"count":65728,
			"type":"VEC2"
		},
		{
			"bufferView":23,
			"componentType":5125,
			"count":282129,
			"type":"SCALAR"
		},
		{
			"bufferView":24,
			"componentType":5126,
			"count":65644,
			"max":[
				10.53030014038086,
				3.2939000129699707,
				10.213800430297852
			],
			"min":[
				-12.296799659729004,
				-3.5009000301361084,
				0.2583000063896179
			],
			"type":"VEC3"
		},
		{
			"bufferView":25,
			"componentType":5126,
			"count":65644,
			"type":"VEC3"
		},
		{
			"bufferView":26,
			"componentType":5126,
			"count":65644,
			"type":"VEC2"
		},
		{
			"bufferView":27,
			"componentType":5126,
			"count":65644,
			"type":"VEC2"
		},
		{
			"bufferView":28,
			"componentType":5125,
			"count":282645,
			"type":"SCALAR"
		},
		{
			"bufferView":29,
			"componentType":5126,
			"count":65725,
			"max":[
				10.182499885559082,
				2.9433999061584473,
				8.013400077819824
			],
			"min":[
				-12.169400215148926,
				-4.281199932098389,
				0.22300000488758087
			],
			"type":"VEC3"
		},
		{
			"bufferView":30,
			"componentType":5126,
			"count":65725,
			"type":"VEC3"
		},
		{
			"bufferView":31,
			"componentType":5126,
			"count":65725,
			"type":"VEC2"
		},
		{
			"bufferView":32,
			"componentType":5126,
			"count":65725,
			"type":"VEC2"
		},
		{
			"bufferView":33,
			"componentType":5125,
			"count":258603,
			"type":"SCALAR"
		},
		{
			"bufferView":34,
			"componentType":5126,
			"count":65722,
			"max":[
				10.53339958190918,
				3.3043999671936035,
				7.986199855804443
			],
			"min":[
				-12.176300048828125,
				-4.046299934387207,
				0.241799995303154
			],
			"type":"VEC3"
		},
		{
			"bufferView":35,
			"componentType":5126,
			"count":65722,
			"type":"VEC3"
		},
		{
			"bufferView":36,
			"componentType":5126,
			"count":65722,
			"type":"VEC2"
		},
		{
			"bufferView":37,
			"componentType":5126,
			"count":65722,
			"type":"VEC2"
		},
		{
			"bufferView":38,
			"componentType":5125,
			"count":234954,
			"type":"SCALAR"
		},
		{
			"bufferView":39,
			"componentType":5126,
			"count":57169,
			"max":[
				10.286299705505371,
				3.333699941635132,
				9.120200157165527
			],
			"min":[
				-12.386500358581543,
				-4.1894001960754395,
				0.21610000729560852
			],
			"type":"VEC3"
		},
		{
			"bufferView":40,
			"componentType":5126,
			"count":57169,
			"type":"VEC3"
		},
		{
			"bufferView":41,
			"componentType":5126,
			"count":57169,
			"type":"VEC2"
		},
		{
			"bufferView":42,
			"componentType":5126,
			"count":57169,
			"type":"VEC2"
		},
		{
			"bufferView":43,
			"componentType":5123,
			"count":168897,
			"type":"SCALAR"
		},
		{
			"bufferView":44,
			"componentType":5126,
			"count":1281,
			"max":[
				6.681300163269043,
				2.655600070953369,
				7.906300067901611
			],
			"min":[
				2.4334001541137695,
				-2.753000020980835,
				5.0183000564575195
			],
			"type":"VEC3"
		},
		{
			"bufferView":45,
			"componentType":5126,
			"count":1281,
			"type":"VEC3"
		},
		{
			"bufferView":46,
			"componentType":5126,
			"count":1281,
			"type":"VEC2"
		},
		{
			"bufferView":47,
			"componentType":5123,
			"count":3912,
			"type":"SCALAR"
		}
	],
	"bufferViews":[
		{
			"buffer":0,
			"byteLength":22212,
			"byteOffset":0,
			"target":34962
		},
		{
			"buffer":0,
			"byteLength":22212,
			"byteOffset":22212,
			"target":34962
		},
		{
			"buffer":0,
			"byteLength":14808,
			"byteOffset":44424,
			"target":34962
		},
		{
			"buffer":0,
			"byteLength":14808,
			"byteOffset":59232,
			"target":34962
		},
		{
			"buffer":0,
			"byteLength":6108,
			"byteOffset":74040,
			"target":34963
		},
		{
			"buffer":0,
			"byteLength":288,
			"byteOffset":80148,
			"target":34962
		},
		{
			"buffer":0,
			"byteLength":288,
			"byteOffset":80436,
			"target":34962
		},
		{
			"buffer":0,
			"byteLength":192,
			"byteOffset":80724,
			"target":34962
		},
		{
			"buffer":0,
			"byteLength":72,
			"byteOffset":80916,
			"target":34963
		},
		{
			"buffer":0,
			"byteLength":87492,
			"byteOffset":80988,
			"target":34962
		},
		{
			"buffer":0,
			"byteLength":87492,
			"byteOffset":168480,
			"target":34962
		},
		{
			"buffer":0,
			"byteLength":58328,
			"byteOffset":255972,
			"target":34962
		},
		{
			"buffer":0,
			"byteLength":58328,
			"byteOffset":314300,
			"target":34962
		},
		{
			"buffer":0,
			"byteLength":59952,
			"byteOffset":372628,
			"target":34963
		},
		{
			"buffer":0,
			"byteLength":789240,
			"byteOffset":432580,
			"target":34962
		},
		{
			"buffer":0,
			"byteLength":789240,
			"byteOffset":1221820,
			"target":34962
		},
		{
			"buffer":0,
			"byteLength":526160,
			"byteOffset":2011060,
			"target":34962
		},
		{
			"buffer":0,
			"byteLength":526160,
			"byteOffset":2537220,
			"target":34962
		},
		{
			"buffer":0,
			"byteLength":1076292,
			"byteOffset":3063380,
			"target":34963
		},
		{
			"buffer":0,
			"byteLength":788736,
			"byteOffset":4139672,
			"target":34962
		},
		{
			"buffer":0,
			"byteLength":788736,
			"byteOffset":4928408,
			"target":34962
		},
		{
			"buffer":0,
			"byteLength":525824,
			"byteOffset":5717144,
			"target":34962
		},
		{
			"buffer":0,
			"byteLength":525824,
			"byteOffset":6242968,
			"target":34962
		},
		{
			"buffer":0,
			"byteLength":1128516,
			"byteOffset":6768792,
			"target":34963
		},
		{
			"buffer":0,
			"byteLength":787728,
			"byteOffset":7897308,
			"target":34962
		},
		{
			"buffer":0,
			"byteLength":787728,
			"byteOffset":8685036,
			"target":34962
		},
		{
			"buffer":0,
			"byteLength":525152,
			"byteOffset":9472764,
			"target":34962
		},
		{
			"buffer":0,
			"byteLength":525152,
			"byteOffset":9997916,
			"target":34962
		},
		{
			"buffer":0,
			"byteLength":1130580,
			"byteOffset":10523068,
			"target":34963
		},
		{
			"buffer":0,
			"byteLength":788700,
			"byteOffset":11653648,
			"target":34962
		},
		{
			"buffer":0,
			"byteLength":788700,
			"byteOffset":12442348,
			"target":34962
		},
		{
			"buffer":0,
			"byteLength":525800,
			"byteOffset":13231048,
			"target":34962
		},
		{
			"buffer":0,
			"byteLength":525800,
			"byteOffset":13756848,
			"target":34962
		},
		{
			"buffer":0,
			"byteLength":1034412,
			"byteOffset":14282648,
			"target":34963
		},
		{
			"buffer":0,
			"byteLength":788664,
			"byteOffset":15317060,
			"target":34962
		},
		{
			"buffer":0,
			"byteLength":788664,
			"byteOffset":16105724,
			"target":34962
		},
		{
			"buffer":0,
			"byteLength":525776,
			"byteOffset":16894388,
			"target":34962
		},
		{
			"buffer":0,
			"byteLength":525776,
			"byteOffset":17420164,
			"target":34962
		},
		{
			"buffer":0,
			"byteLength":939816,
			"byteOffset":17945940,
			"target":34963
		},
		{
			"buffer":0,
			"byteLength":686028,
			"byteOffset":18885756,
			"target":34962
		},
		{
			"buffer":0,
			"byteLength":686028,
			"byteOffset":19571784,
			"target":34962
		},
		{
			"buffer":0,
			"byteLength":457352,
			"byteOffset":20257812,
			"target":34962
		},
		{
			"buffer":0,
			"byteLength":457352,
			"byteOffset":20715164,
			"target":34962
		},
		{
			"buffer":0,
			"byteLength":337794,
			"byteOffset":21172516,
			"target":34963
		},
		{
			"buffer":0,
			"byteLength":15372,
			"byteOffset":21510312,
			"target":34962
		},
		{
			"buffer":0,
			"byteLength":15372,
			"byteOffset":21525684,
			"target":34962
		},
		{
			"buffer":0,
			"byteLength":10248,
			"byteOffset":21541056,
			"target":34962
		},
		{
			"buffer":0,
			"byteLength":7824,
			"byteOffset":21551304,
			"target":34963
		}
	],
	"buffers":[
		{
			"byteLength":21559128,
			"uri":"mv_spartan.bin"
		}
	]
}
