{
	"asset":{
		"generator":"Khronos glTF Blender I/O v4.5.47",
		"version":"2.0"
	},
	"extensionsUsed":[
		"KHR_materials_specular",
		"KHR_materials_ior"
	],
	"scene":0,
	"scenes":[
		{
			"extras":{
				"gpto_curve_properties":{
					"surface_target":{}
				},
				"SimpleBake_Props":{}
			},
			"name":"Scene",
			"nodes":[
				0
			]
		}
	],
	"nodes":[
		{
			"mesh":0,
			"name":"boat"
		}
	],
	"materials":[
		{
			"doubleSided":true,
			"extensions":{
				"KHR_materials_specular":{
					"specularColorFactor":[
						0.0,
						0.0,
						0.0
					]
				},
				"KHR_materials_ior":{
					"ior":1000
				}
			},
			"name":"default.002",
			"normalTexture":{
				"index":0
			},
			"pbrMetallicRoughness":{
				"baseColorTexture":{
					"index":1
				},
				"metallicFactor":0,
				"roughnessFactor":0.8929713368415833
			}
		}
	],
	"meshes":[
		{
			"name":"Spartan_default_0.015",
			"primitives":[
				{
					"attributes":{
						"POSITION":0,
						"NORMAL":1,
						"TEXCOORD_0":2,
						"COLOR_0":3,
						"COLOR_1":4
					},
					"indices":5,
					"material":0
				}
			]
		}
	],
	"textures":[
		{
			"sampler":0,
			"source":0
		},
		{
			"sampler":0,
			"source":1
		}
	],
	"images":[
		{
			"mimeType":"image/png",
			"name":"default_normal.png",
			"uri":"default_normal.png.png"
		},
		{
			"mimeType":"image/png",
			"name":"default_diffuse.png",
			"uri":"default_diffuse.png.png"
		}
	],
	"accessors":[
		{
			"bufferView":0,
			"componentType":5126,
			"count":214123,
			"max":[
				10.550800323486328,
				10.203301429748535,
				4.281200408935547
			],
			"min":[
				-12.405200004577637,
				0.02230057679116726,
				-3.3446004390716553
			],
			"type":"VEC3"
		},
		{
			"bufferView":1,
			"componentType":5126,
			"count":214123,
			"type":"VEC3"
		},
		{
			"bufferView":2,
			"componentType":5126,
			"count":214123,
			"type":"VEC2"
		},
		{
			"bufferView":3,
			"componentType":5121,
			"count":214123,
			"normalized":true,
			"type":"VEC4"
		},
		{
			"bufferView":4,
			"componentType":5123,
			"count":214123,
			"normalized":true,
			"type":"VEC4"
		},
		{
			"bufferView":5,
			"componentType":5125,
			"count":405474,
			"type":"SCALAR"
		}
	],
	"bufferViews":[
		{
			"buffer":0,
			"byteLength":2569476,
			"byteOffset":0,
			"target":34962
		},
		{
			"buffer":0,
			"byteLength":2569476,
			"byteOffset":2569476,
			"target":34962
		},
		{
			"buffer":0,
			"byteLength":1712984,
			"byteOffset":5138952,
			"target":34962
		},
		{
			"buffer":0,
			"byteLength":856492,
			"byteOffset":6851936,
			"target":34962
		},
		{
			"buffer":0,
			"byteLength":1712984,
			"byteOffset":7708428,
			"target":34962
		},
		{
			"buffer":0,
			"byteLength":1621896,
			"byteOffset":9421412,
			"target":34963
		}
	],
	"samplers":[
		{
			"magFilter":9729,
			"minFilter":9987
		}
	],
	"buffers":[
		{
			"byteLength":11043308,
			"uri":"spartan.bin"
		}
	]
}
