{
	"asset":{
		"generator":"Khronos glTF Blender I/O v4.5.47",
		"version":"2.0"
	},
	"scene":0,
	"scenes":[
		{
			"name":"Scene",
			"nodes":[
				0,
				1,
				2,
				3
			]
		}
	],
	"nodes":[
		{
			"mesh":0,
			"name":"\u9b54\u65b9"
		},
		{
			"mesh":1,
			"name":"\u68f1\u89d2\u7403"
		},
		{
			"mesh":2,
			"name":"\u73af"
		},
		{
			"mesh":3,
			"name":"\u7403"
		}
	],
	"meshes":[
		{
			"name":"Cube",
			"primitives":[
				{
					"attributes":{
						"POSITION":0,
						"NORMAL":1
					},
					"indices":2
				}
			]
		},
		{
			"name":"\u68f1\u89d2\u7403",
			"primitives":[
				{
					"attributes":{
						"POSITION":3,
						"NORMAL":4,
						"TEXCOORD_0":5
					},
					"indices":6
				}
			]
		},
		{
			"name":"\u73af\u4f53",
			"primitives":[
				{
					"attributes":{
						"POSITION":7,
						"NORMAL":8,
						"TEXCOORD_0":9
					},
					"indices":10
				}
			]
		},
		{
			"name":"\u5e73\u9762",
			"primitives":[
				{
					"attributes":{
						"POSITION":11,
						"NORMAL":12
					},
					"indices":13
				}
			]
		}
	],
	"accessors":[
		{
			"bufferView":0,
			"componentType":5126,
			"count":10036,
			"max":[
				1.2999999523162842,
				1.2999999523162842,
				1.2999999523162842
			],
			"min":[
				-1.2999999523162842,
				-1.2999999523162842,
				-1.2999999523162842
			],
			"type":"VEC3"
		},
		{
			"bufferView":1,
			"componentType":5126,
			"count":10036,
			"type":"VEC3"
		},
		{
			"bufferView":2,
			"componentType":5123,
			"count":59904,
			"type":"SCALAR"
		},
		{
			"bufferView":3,
			"componentType":5126,
			"count":5083,
			"max":[
				1.9021157026290894,
				2,
				1.9999998807907104
			],
			"min":[
				-1.9021157026290894,
				-2,
				-1.9999998807907104
			],
			"type":"VEC3"
		},
		{
			"bufferView":4,
			"componentType":5126,
			"count":5083,
			"type":"VEC3"
		},
		{
			"bufferView":5,
			"componentType":5126,
			"count":5083,
			"type":"VEC2"
		},
		{
			"bufferView":6,
			"componentType":5123,
			"count":29040,
			"type":"SCALAR"
		},
		{
			"bufferView":7,
			"componentType":5126,
			"count":9417,
			"max":[
				1.9200000762939453,
				0.5400000214576721,
				1.9200000762939453
			],
			"min":[
				-1.9200000762939453,
				-0.5400000214576721,
				-1.9200000762939453
			],
			"type":"VEC3"
		},
		{
			"bufferView":8,
			"componentType":5126,
			"count":9417,
			"type":"VEC3"
		},
		{
			"bufferView":9,
			"componentType":5126,
			"count":9417,
			"type":"VEC2"
		},
		{
			"bufferView":10,
			"componentType":5123,
			"count":55296,
			"type":"SCALAR"
		},
		{
			"bufferView":11,
			"componentType":5126,
			"count":9090,
			"max":[
				1.600000023841858,
				1.600000023841858,
				1.600000023841858
			],
			"min":[
				-1.600000023841858,
				-1.600000023841858,
				-1.600000023841858
			],
			"type":"VEC3"
		},
		{
			"bufferView":12,
			"componentType":5126,
			"count":9090,
			"type":"VEC3"
		},
		{
			"bufferView":13,
			"componentType":5123,
			"count":54528,
			"type":"SCALAR"
		}
	],
	"bufferViews":[
		{
			"buffer":0,
			"byteLength":120432,
			"byteOffset":0,
			"target":34962
		},
		{
			"buffer":0,
			"byteLength":120432,
			"byteOffset":120432,
			"target":34962
		},
		{
			"buffer":0,
			"byteLength":119808,
			"byteOffset":240864,
			"target":34963
		},
		{
			"buffer":0,
			"byteLength":60996,
			"byteOffset":360672,
			"target":34962
		},
		{
			"buffer":0,
			"byteLength":60996,
			"byteOffset":421668,
			"target":34962
		},
		{
			"buffer":0,
			"byteLength":40664,
			"byteOffset":482664,
			"target":34962
		},
		{
			"buffer":0,
			"byteLength":58080,
			"byteOffset":523328,
			"target":34963
		},
		{
			"buffer":0,
			"byteLength":113004,
			"byteOffset":581408,
			"target":34962
		},
		{
			"buffer":0,
			"byteLength":113004,
			"byteOffset":694412,
			"target":34962
		},
		{
			"buffer":0,
			"byteLength":75336,
			"byteOffset":807416,
			"target":34962
		},
		{
			"buffer":0,
			"byteLength":110592,
			"byteOffset":882752,
			"target":34963
		},
		{
			"buffer":0,
			"byteLength":109080,
			"byteOffset":993344,
			"target":34962
		},
		{
			"buffer":0,
			"byteLength":109080,
			"byteOffset":1102424,
			"target":34962
		},
		{
			"buffer":0,
			"byteLength":109056,
			"byteOffset":1211504,
			"target":34963
		}
	],
	"buffers":[
		{
			"byteLength":1320560,
			"uri":"%E5%87%A0%E4%BD%95%E6%A8%A1%E5%9E%8B.bin"
		}
	]
}
