{
	"asset":{
		"generator":"Khronos glTF Blender I/O v4.4.56",
		"version":"2.0"
	},
	"scene":0,
	"scenes":[
		{
			"name":"Scene",
			"nodes":[
				0
			]
		}
	],
	"nodes":[
		{
			"mesh":0,
			"name":"old_book",
			"translation":[
				0.0012019462883472443,
				-0.0014108226168900728,
				-0.028769709169864655
			]
		}
	],
	"materials":[
		{
			"doubleSided":true,
			"name":"Old book.001",
			"normalTexture":{
				"index":0
			},
			"pbrMetallicRoughness":{
				"baseColorTexture":{
					"index":1
				},
				"metallicRoughnessTexture":{
					"index":2
				}
			}
		}
	],
	"meshes":[
		{
			"name":"old_book",
			"primitives":[
				{
					"attributes":{
						"POSITION":0,
						"NORMAL":1,
						"TEXCOORD_0":2
					},
					"indices":3,
					"material":0
				}
			]
		}
	],
	"textures":[
		{
			"sampler":0,
			"source":0
		},
		{
			"sampler":0,
			"source":1
		},
		{
			"sampler":0,
			"source":2
		}
	],
	"images":[
		{
			"mimeType":"image/png",
			"name":"old_book_Old old_book_Normal_GL",
			"uri":"old_book_Old%20old_book_Normal_GL.png"
		},
		{
			"mimeType":"image/png",
			"name":"old_book_Old old_book_BaseColor",
			"uri":"old_book_Old%20old_book_BaseColor.png"
		},
		{
			"mimeType":"image/png",
			"name":"old_book_Old old_book_Metallic-old_book_Old old_book_Roughness",
			"uri":"old_book_Old%20old_book_Metallic-old_book_Old%20old_book_Roughness.png"
		}
	],
	"accessors":[
		{
			"bufferView":0,
			"componentType":5126,
			"count":18518,
			"max":[
				0.0932043194770813,
				0.053872570395469666,
				0.20199480652809143
			],
			"min":[
				-0.09452158957719803,
				-0.0009906264021992683,
				-0.1266276240348816
			],
			"type":"VEC3"
		},
		{
			"bufferView":1,
			"componentType":5126,
			"count":18518,
			"type":"VEC3"
		},
		{
			"bufferView":2,
			"componentType":5126,
			"count":18518,
			"type":"VEC2"
		},
		{
			"bufferView":3,
			"componentType":5123,
			"count":98088,
			"type":"SCALAR"
		}
	],
	"bufferViews":[
		{
			"buffer":0,
			"byteLength":222216,
			"byteOffset":0,
			"target":34962
		},
		{
			"buffer":0,
			"byteLength":222216,
			"byteOffset":222216,
			"target":34962
		},
		{
			"buffer":0,
			"byteLength":148144,
			"byteOffset":444432,
			"target":34962
		},
		{
			"buffer":0,
			"byteLength":196176,
			"byteOffset":592576,
			"target":34963
		}
	],
	"samplers":[
		{
			"magFilter":9729,
			"minFilter":9987
		}
	],
	"buffers":[
		{
			"byteLength":788752,
			"uri":"old_book_%28GLTF%29.bin"
		}
	]
}
